<svg width="461" height="37" fill="none" xmlns="http://www.w3.org/2000/svg">
  <path d="M2.954.984h4.713l6.94 19.835L21.545.984h4.713L16.499 28h-3.785L2.954.984Zm-2.542 0h4.694l.854 19.334V28H.412V.984Zm23.694 0h4.713V28h-5.566v-7.682L24.106.984Zm18.5 27.387c-1.56 0-2.957-.247-4.194-.742-1.237-.507-2.288-1.206-3.154-2.097a9.317 9.317 0 0 1-1.967-3.098 10.433 10.433 0 0 1-.686-3.786v-.742c0-1.521.216-2.913.649-4.175.433-1.261 1.051-2.356 1.855-3.284a8.15 8.15 0 0 1 2.97-2.134c1.162-.507 2.473-.76 3.933-.76 1.422 0 2.684.235 3.785.705a7.417 7.417 0 0 1 2.765 2.004c.754.866 1.323 1.905 1.707 3.117.383 1.2.575 2.536.575 4.008v2.226H34.887v-3.562h10.706v-.408c0-.743-.136-1.404-.408-1.986a3.151 3.151 0 0 0-1.188-1.41c-.532-.346-1.212-.52-2.04-.52-.706 0-1.312.155-1.82.464-.507.31-.92.743-1.242 1.3-.31.556-.545 1.212-.706 1.966a12.506 12.506 0 0 0-.222 2.45v.741c0 .805.111 1.547.334 2.227a5.44 5.44 0 0 0 .983 1.763 4.5 4.5 0 0 0 1.559 1.15c.618.272 1.317.408 2.096.408.965 0 1.862-.185 2.69-.556a5.824 5.824 0 0 0 2.172-1.726l2.597 2.82c-.42.606-.995 1.188-1.725 1.744-.718.557-1.584 1.015-2.598 1.374-1.014.346-2.17.52-3.47.52ZM58.19 7.924l3.322 6.104 3.414-6.104h5.696l-5.678 9.815L70.883 28h-5.715l-3.618-6.457L57.932 28h-5.715l5.937-10.26-5.677-9.816h5.714Zm20.67 0V28H73.5V7.924h5.362ZM73.165 2.69c0-.779.272-1.422.816-1.93.545-.506 1.275-.76 2.19-.76.903 0 1.626.254 2.17.76.557.508.836 1.151.836 1.93 0 .78-.279 1.423-.835 1.93-.544.507-1.268.76-2.171.76-.916 0-1.645-.253-2.19-.76-.544-.507-.816-1.15-.816-1.93Zm18.406 21.505c.656 0 1.237-.123 1.744-.37.508-.26.903-.62 1.188-1.077.297-.47.451-1.02.464-1.651h5.028c-.012 1.41-.39 2.665-1.132 3.766-.742 1.089-1.738 1.948-2.987 2.58-1.25.618-2.647.927-4.193.927-1.559 0-2.92-.26-4.082-.78-1.15-.519-2.11-1.236-2.876-2.152a9.409 9.409 0 0 1-1.726-3.228c-.383-1.237-.575-2.56-.575-3.97v-.539c0-1.422.192-2.746.575-3.97.383-1.237.959-2.314 1.726-3.23a7.876 7.876 0 0 1 2.876-2.17c1.15-.52 2.498-.78 4.044-.78 1.646 0 3.087.316 4.324.947a7.05 7.05 0 0 1 2.931 2.709c.718 1.163 1.083 2.542 1.095 4.138h-5.028a4.186 4.186 0 0 0-.427-1.819 3.077 3.077 0 0 0-1.15-1.298c-.495-.334-1.107-.502-1.837-.502-.78 0-1.417.168-1.911.502a3.198 3.198 0 0 0-1.15 1.336 6.654 6.654 0 0 0-.576 1.91 16.03 16.03 0 0 0-.148 2.227v.538c0 .78.05 1.528.148 2.245.099.718.285 1.355.557 1.912.284.556.674.995 1.169 1.317.494.322 1.138.482 1.93.482Zm10.669-6.03v-.39c0-1.472.211-2.826.631-4.063.421-1.25 1.033-2.332 1.837-3.247a8.233 8.233 0 0 1 2.969-2.134c1.175-.52 2.523-.78 4.045-.78 1.521 0 2.876.26 4.063.78 1.188.507 2.183 1.218 2.987 2.134.817.915 1.435 1.998 1.856 3.247.421 1.237.631 2.591.631 4.063v.39c0 1.46-.21 2.814-.631 4.064a9.469 9.469 0 0 1-1.856 3.247 8.23 8.23 0 0 1-2.968 2.133c-1.175.508-2.524.761-4.045.761-1.522 0-2.876-.253-4.064-.76a8.407 8.407 0 0 1-2.987-2.134c-.804-.928-1.416-2.01-1.837-3.247-.42-1.25-.631-2.604-.631-4.064Zm5.344-.39v.39c0 .841.074 1.627.223 2.357a6.36 6.36 0 0 0 .705 1.93c.334.543.767.97 1.299 1.28.531.309 1.181.463 1.948.463.742 0 1.379-.154 1.911-.464a3.522 3.522 0 0 0 1.28-1.28 6.35 6.35 0 0 0 .705-1.93c.161-.73.241-1.515.241-2.356v-.39c0-.816-.08-1.583-.241-2.3a6.061 6.061 0 0 0-.723-1.93 3.597 3.597 0 0 0-1.281-1.336c-.532-.322-1.175-.483-1.929-.483-.755 0-1.398.161-1.93.483-.52.322-.946.767-1.28 1.336a6.346 6.346 0 0 0-.705 1.93 11.305 11.305 0 0 0-.223 2.3Zm34.66 5.882V28h-13.6v-4.342h13.6ZM130.443.984V28h-5.566V.984h5.566Zm26.088 22.21V7.924h5.344V28h-5.028l-.316-4.806Zm.594-4.119 1.577-.037c0 1.336-.154 2.58-.464 3.73-.309 1.138-.773 2.127-1.391 2.968a6.508 6.508 0 0 1-2.338 1.949c-.94.457-2.047.686-3.321.686-.978 0-1.881-.136-2.709-.408a5.515 5.515 0 0 1-2.116-1.318c-.581-.606-1.039-1.379-1.373-2.319-.321-.952-.482-2.096-.482-3.432V7.924h5.344V20.93c0 .593.068 1.094.204 1.503.148.408.352.742.612 1.002s.563.445.909.556c.359.111.755.167 1.188.167 1.101 0 1.966-.223 2.597-.668a3.521 3.521 0 0 0 1.355-1.818c.272-.78.408-1.645.408-2.598Zm13.137-11.151 3.321 6.104 3.414-6.104h5.696l-5.677 9.815L182.953 28h-5.715l-3.618-6.457L170.002 28h-5.715l5.938-10.26-5.678-9.816h5.715Zm26.904 15.27V7.924h5.344V28h-5.029l-.315-4.806Zm.594-4.119 1.577-.037c0 1.336-.155 2.58-.464 3.73-.309 1.138-.773 2.127-1.392 2.968a6.496 6.496 0 0 1-2.337 1.949c-.941.457-2.048.686-3.322.686-.977 0-1.88-.136-2.709-.408a5.519 5.519 0 0 1-2.115-1.318c-.581-.606-1.039-1.379-1.373-2.319-.322-.952-.482-2.096-.482-3.432V7.924h5.343V20.93c0 .593.068 1.094.204 1.503.149.408.353.742.613 1.002.259.26.563.445.909.556.359.111.754.167 1.187.167 1.101 0 1.967-.223 2.598-.668a3.526 3.526 0 0 0 1.355-1.818c.272-.78.408-1.645.408-2.598Zm14.176-6.772V28h-5.344V7.924h5.028l.316 4.379Zm6.048-4.51-.092 4.955c-.26-.037-.576-.068-.947-.093a9.604 9.604 0 0 0-.983-.055c-.755 0-1.41.099-1.967.296a3.51 3.51 0 0 0-1.373.835 3.634 3.634 0 0 0-.816 1.355c-.174.532-.272 1.138-.297 1.818l-1.076-.334c0-1.299.129-2.492.389-3.58.26-1.102.637-2.06 1.132-2.877.507-.816 1.126-1.447 1.856-1.892.729-.446 1.564-.668 2.504-.668.297 0 .6.024.91.074.309.037.562.093.76.167Zm8.814 17.943 5.325-17.812h5.733l-8.071 23.1a12.473 12.473 0 0 1-.705 1.633 6.595 6.595 0 0 1-1.169 1.652c-.482.532-1.095.964-1.837 1.298-.73.334-1.626.501-2.69.501-.507 0-.922-.03-1.243-.092a21.954 21.954 0 0 1-1.151-.26V31.84h.427c.148.012.291.018.427.018.705 0 1.28-.08 1.725-.24a2.423 2.423 0 0 0 1.077-.743c.272-.322.488-.742.649-1.262l1.503-3.878Zm-2.227-17.812 4.361 14.547.76 5.659-3.636.39-7.218-20.596h5.733ZM258.081 28h-5.882l.037-4.342h5.845c1.46 0 2.69-.328 3.692-.983 1.002-.668 1.757-1.64 2.264-2.913.52-1.274.779-2.814.779-4.62v-1.318c0-1.385-.148-2.604-.445-3.655-.284-1.051-.711-1.936-1.28-2.653a5.354 5.354 0 0 0-2.097-1.615c-.829-.37-1.781-.556-2.857-.556h-6.049V.985h6.049c1.806 0 3.457.309 4.954.927a11.173 11.173 0 0 1 3.915 2.616c1.101 1.138 1.948 2.499 2.542 4.082.606 1.571.909 3.322.909 5.251v1.28c0 1.918-.303 3.668-.909 5.252-.594 1.583-1.441 2.944-2.542 4.082-1.089 1.125-2.394 1.997-3.915 2.616-1.509.606-3.179.909-5.01.909ZM255.354.984V28h-5.567V.984h5.567Zm28.054 27.387c-1.558 0-2.956-.247-4.193-.742-1.237-.507-2.289-1.206-3.154-2.097a9.299 9.299 0 0 1-1.967-3.098 10.427 10.427 0 0 1-.687-3.786v-.742c0-1.521.217-2.913.65-4.175.433-1.261 1.051-2.356 1.855-3.284a8.154 8.154 0 0 1 2.969-2.134c1.163-.507 2.474-.76 3.933-.76 1.423 0 2.685.235 3.786.705a7.412 7.412 0 0 1 2.764 2.004c.755.866 1.324 1.905 1.707 3.117.384 1.2.575 2.536.575 4.008v2.226h-15.957v-3.562h10.707v-.408c0-.743-.137-1.404-.409-1.986a3.145 3.145 0 0 0-1.187-1.41c-.532-.346-1.212-.52-2.041-.52-.705 0-1.311.155-1.819.464-.507.31-.921.743-1.243 1.3-.309.556-.544 1.212-.705 1.966a12.547 12.547 0 0 0-.222 2.45v.741c0 .805.111 1.547.334 2.227.235.68.562 1.268.983 1.763a4.49 4.49 0 0 0 1.559 1.15c.618.272 1.317.408 2.096.408a6.51 6.51 0 0 0 2.691-.556 5.832 5.832 0 0 0 2.171-1.726l2.597 2.82c-.42.606-.996 1.188-1.725 1.744-.718.557-1.584 1.015-2.598 1.374-1.014.346-2.171.52-3.47.52Zm22.136-5.919c0-.383-.111-.73-.334-1.039-.223-.31-.637-.594-1.243-.853-.594-.273-1.454-.52-2.579-.743a20.086 20.086 0 0 1-2.839-.835c-.866-.346-1.621-.76-2.264-1.243a5.407 5.407 0 0 1-1.484-1.707c-.359-.668-.538-1.428-.538-2.282 0-.841.179-1.633.538-2.375a6.126 6.126 0 0 1 1.577-1.967c.693-.581 1.534-1.033 2.523-1.354 1.002-.334 2.128-.501 3.377-.501 1.744 0 3.241.278 4.491.835 1.261.556 2.226 1.323 2.894 2.3.68.965 1.021 2.066 1.021 3.303h-5.344c0-.52-.111-.983-.334-1.391-.21-.421-.544-.749-1.002-.984-.445-.247-1.027-.37-1.744-.37-.594 0-1.107.104-1.54.314-.433.198-.767.47-1.002.817a1.96 1.96 0 0 0-.334 1.113c0 .31.062.588.185.835.136.235.353.452.65.65.297.197.68.383 1.15.556.483.161 1.076.31 1.781.446 1.448.296 2.74.686 3.878 1.168 1.138.47 2.041 1.114 2.709 1.93.668.804 1.002 1.862 1.002 3.173 0 .89-.198 1.707-.593 2.45-.396.741-.965 1.39-1.708 1.947-.742.545-1.632.971-2.671 1.28-1.027.298-2.184.446-3.47.446-1.868 0-3.451-.334-4.75-1.002-1.287-.668-2.264-1.515-2.932-2.542-.655-1.039-.983-2.103-.983-3.191h5.065c.025.73.211 1.317.557 1.762.359.446.81.767 1.354.965a5.338 5.338 0 0 0 1.8.297c.693 0 1.268-.093 1.726-.278.457-.198.804-.458 1.039-.78a1.88 1.88 0 0 0 .371-1.15Zm18.499-14.528v3.785h-11.689V7.924h11.689Zm-8.795-4.954h5.344v18.98c0 .582.074 1.027.222 1.336.161.31.396.526.706.65.309.11.698.166 1.168.166.334 0 .631-.012.891-.037.272-.037.501-.074.687-.11l.018 3.933c-.458.148-.952.266-1.484.352-.532.087-1.12.13-1.763.13-1.175 0-2.202-.192-3.08-.575-.866-.396-1.534-1.027-2.004-1.893-.47-.866-.705-2.004-.705-3.414V2.97Zm17.479 4.954V28h-5.363V7.924h5.363ZM327.03 2.69c0-.779.272-1.422.817-1.93.544-.506 1.274-.76 2.189-.76.903 0 1.627.254 2.171.76.557.508.835 1.151.835 1.93 0 .78-.278 1.423-.835 1.93-.544.507-1.268.76-2.171.76-.915 0-1.645-.253-2.189-.76-.545-.507-.817-1.15-.817-1.93Zm15.345 9.519V28h-5.344V7.924h5.01l.334 4.286Zm-.779 5.047h-1.448c0-1.485.192-2.82.576-4.008.383-1.2.921-2.22 1.614-3.062a6.934 6.934 0 0 1 2.468-1.948c.965-.457 2.041-.686 3.228-.686.94 0 1.8.136 2.579.408.78.272 1.448.705 2.004 1.299.569.594 1.002 1.379 1.299 2.356.309.977.464 2.171.464 3.581V28h-5.381V15.179c0-.89-.124-1.584-.371-2.078-.247-.495-.612-.842-1.095-1.04-.47-.21-1.051-.315-1.744-.315-.717 0-1.342.142-1.874.427a3.73 3.73 0 0 0-1.299 1.187 5.622 5.622 0 0 0-.761 1.745 8.561 8.561 0 0 0-.259 2.152Zm27.683 6.216v-8.944c0-.643-.105-1.193-.315-1.651a2.344 2.344 0 0 0-.984-1.095c-.432-.26-.995-.39-1.688-.39-.594 0-1.107.106-1.54.316a2.229 2.229 0 0 0-1.002.872c-.235.371-.353.81-.353 1.317h-5.343c0-.853.198-1.663.593-2.43.396-.767.971-1.441 1.726-2.023.755-.593 1.651-1.057 2.69-1.391 1.052-.334 2.227-.501 3.526-.501 1.558 0 2.944.26 4.156.779 1.212.52 2.165 1.299 2.858 2.338.705 1.039 1.057 2.338 1.057 3.896v8.591c0 1.101.068 2.004.204 2.71.136.692.334 1.298.594 1.818V28h-5.399c-.26-.544-.458-1.225-.594-2.041a16.781 16.781 0 0 1-.186-2.486Zm.705-7.7.037 3.024h-2.987c-.705 0-1.317.08-1.837.241-.519.16-.946.39-1.28.687a2.654 2.654 0 0 0-.742 1.002 3.455 3.455 0 0 0-.223 1.261c0 .458.105.872.316 1.243.21.36.513.644.909.854.396.198.859.297 1.391.297.804 0 1.503-.161 2.097-.483.594-.321 1.051-.717 1.373-1.187.334-.47.507-.915.52-1.336l1.41 2.264a9.131 9.131 0 0 1-.817 1.577 7.349 7.349 0 0 1-1.28 1.54 6.59 6.59 0 0 1-1.874 1.169c-.73.297-1.596.445-2.598.445-1.274 0-2.43-.253-3.469-.76-1.027-.52-1.843-1.231-2.45-2.134-.593-.916-.89-1.955-.89-3.118 0-1.051.198-1.985.594-2.801a5.459 5.459 0 0 1 1.744-2.06c.779-.569 1.75-.996 2.913-1.28 1.163-.297 2.511-.445 4.045-.445h3.098Zm18.629-7.85v3.786h-11.689V7.924h11.689Zm-8.795-4.953h5.344V21.95c0 .582.074 1.027.223 1.336.161.31.396.526.705.65.309.11.699.166 1.169.166.334 0 .631-.012.89-.037.273-.037.501-.074.687-.11l.018 3.933a9.994 9.994 0 0 1-1.484.352c-.532.087-1.119.13-1.763.13-1.175 0-2.201-.192-3.08-.575-.866-.396-1.534-1.027-2.004-1.893-.47-.866-.705-2.004-.705-3.414V2.97Zm17.479 4.954V28h-5.362V7.924h5.362Zm-5.696-5.233c0-.779.272-1.422.816-1.93.544-.506 1.274-.76 2.189-.76.903 0 1.627.254 2.171.76.557.508.835 1.151.835 1.93 0 .78-.278 1.423-.835 1.93-.544.507-1.268.76-2.171.76-.915 0-1.645-.253-2.189-.76s-.816-1.15-.816-1.93Zm9.258 15.475v-.39c0-1.472.211-2.826.631-4.063.421-1.25 1.033-2.332 1.837-3.247a8.233 8.233 0 0 1 2.969-2.134c1.175-.52 2.523-.78 4.045-.78 1.521 0 2.876.26 4.063.78 1.188.507 2.184 1.218 2.988 2.134.816.915 1.434 1.998 1.855 3.247.421 1.237.631 2.591.631 4.063v.39c0 1.46-.21 2.814-.631 4.064a9.483 9.483 0 0 1-1.855 3.247 8.234 8.234 0 0 1-2.969 2.133c-1.175.508-2.524.761-4.045.761-1.522 0-2.876-.253-4.064-.76a8.416 8.416 0 0 1-2.987-2.134c-.804-.928-1.416-2.01-1.837-3.247-.42-1.25-.631-2.604-.631-4.064Zm5.344-.39v.39c0 .841.074 1.627.223 2.357a6.36 6.36 0 0 0 .705 1.93c.334.543.767.97 1.299 1.28.532.309 1.181.463 1.948.463.742 0 1.379-.154 1.911-.464a3.522 3.522 0 0 0 1.28-1.28 6.35 6.35 0 0 0 .705-1.93c.161-.73.242-1.515.242-2.356v-.39c0-.816-.081-1.583-.242-2.3a6.061 6.061 0 0 0-.723-1.93 3.602 3.602 0 0 0-1.28-1.336c-.532-.322-1.176-.483-1.93-.483-.755 0-1.398.161-1.93.483a3.8 3.8 0 0 0-1.28 1.336 6.346 6.346 0 0 0-.705 1.93 11.305 11.305 0 0 0-.223 2.3Zm22.192-5.566V28h-5.344V7.924h5.01l.334 4.286Zm-.78 5.047h-1.447c0-1.485.192-2.82.575-4.008.384-1.2.922-2.22 1.614-3.062a6.942 6.942 0 0 1 2.468-1.948c.965-.457 2.041-.686 3.229-.686.94 0 1.8.136 2.579.408a4.94 4.94 0 0 1 2.004 1.299c.569.594 1.002 1.379 1.299 2.356.309.977.463 2.171.463 3.581V28h-5.38V15.179c0-.89-.124-1.584-.372-2.078-.247-.495-.612-.842-1.094-1.04-.47-.21-1.052-.315-1.744-.315-.718 0-1.343.142-1.874.427-.52.284-.953.68-1.299 1.187a5.599 5.599 0 0 0-.761 1.745 8.56 8.56 0 0 0-.26 2.152Zm27.702 5.195c0-.383-.111-.73-.334-1.039-.222-.31-.637-.594-1.243-.853-.594-.273-1.453-.52-2.579-.743a20.164 20.164 0 0 1-2.839-.835 9.833 9.833 0 0 1-2.263-1.243 5.41 5.41 0 0 1-1.485-1.707c-.359-.668-.538-1.428-.538-2.282 0-.841.179-1.633.538-2.375a6.126 6.126 0 0 1 1.577-1.967c.693-.581 1.534-1.033 2.524-1.354 1.002-.334 2.127-.501 3.377-.501 1.744 0 3.241.278 4.49.835 1.262.556 2.227 1.323 2.895 2.3.68.965 1.02 2.066 1.02 3.303h-5.344c0-.52-.111-.983-.334-1.391-.21-.421-.544-.749-1.002-.984-.445-.247-1.026-.37-1.744-.37-.594 0-1.107.104-1.54.314-.433.198-.767.47-1.002.817a1.968 1.968 0 0 0-.334 1.113c0 .31.062.588.186.835.136.235.352.452.649.65a5.6 5.6 0 0 0 1.151.556c.482.161 1.076.31 1.781.446 1.447.296 2.74.686 3.878 1.168 1.138.47 2.041 1.114 2.709 1.93.668.804 1.002 1.862 1.002 3.173a5.12 5.12 0 0 1-.594 2.45c-.396.741-.965 1.39-1.707 1.947-.742.545-1.633.971-2.672 1.28-1.027.298-2.183.446-3.47.446-1.868 0-3.451-.334-4.75-1.002-1.286-.668-2.263-1.515-2.931-2.542-.656-1.039-.984-2.103-.984-3.191h5.066c.024.73.21 1.317.556 1.762a3.04 3.04 0 0 0 1.355.965 5.33 5.33 0 0 0 1.8.297c.692 0 1.268-.093 1.725-.278.458-.198.804-.458 1.039-.78.248-.333.371-.717.371-1.15Z" fill="#E63946"/>
</svg>
