<svg width="388" height="32" fill="none" xmlns="http://www.w3.org/2000/svg">
  <path d="M2.172 1.75H6.14l5.843 16.703L17.828 1.75h3.969L13.578 24.5h-3.187L2.17 1.75Zm-2.14 0h3.952l.72 16.281V24.5H.03V1.75Zm19.952 0h3.97V24.5h-4.688v-6.469l.718-16.281Zm15.578 23.063c-1.312 0-2.49-.209-3.53-.625-1.042-.428-1.928-1.016-2.657-1.766a7.845 7.845 0 0 1-1.656-2.61 8.784 8.784 0 0 1-.578-3.187V16c0-1.281.182-2.453.547-3.516.364-1.062.885-1.984 1.562-2.765a6.863 6.863 0 0 1 2.5-1.797c.98-.427 2.083-.64 3.313-.64 1.197 0 2.26.197 3.187.593a6.246 6.246 0 0 1 2.328 1.688c.636.729 1.115 1.604 1.438 2.624.323 1.01.484 2.136.484 3.376v1.874H29.062v-3h9.016v-.343c0-.625-.114-1.182-.344-1.672a2.654 2.654 0 0 0-1-1.188c-.448-.291-1.02-.437-1.718-.437-.594 0-1.105.13-1.532.39a3.02 3.02 0 0 0-1.047 1.094 5.953 5.953 0 0 0-.593 1.656A10.535 10.535 0 0 0 31.656 16v.625c0 .677.094 1.302.282 1.875.197.573.473 1.068.828 1.484.364.417.802.74 1.312.97.521.228 1.11.343 1.766.343a5.48 5.48 0 0 0 2.265-.469 4.905 4.905 0 0 0 1.828-1.453l2.188 2.375c-.354.51-.839 1-1.453 1.469-.604.468-1.333.854-2.188 1.156-.854.292-1.828.438-2.922.438Zm13.126-17.22 2.796 5.141 2.875-5.14h4.797l-4.781 8.265 5 8.641h-4.813l-3.046-5.438-3.047 5.438h-4.813l5-8.64-4.781-8.266h4.813Zm17.406 0V24.5h-4.516V7.594h4.516Zm-4.797-4.405c0-.657.229-1.198.687-1.626.459-.427 1.073-.64 1.844-.64.76 0 1.37.213 1.828.64.469.428.703.97.703 1.625 0 .657-.234 1.198-.703 1.626-.458.427-1.068.64-1.828.64-.77 0-1.385-.213-1.844-.64-.458-.428-.687-.97-.687-1.625Zm15.5 18.109c.552 0 1.041-.104 1.469-.313.427-.218.76-.52 1-.906.25-.396.38-.86.39-1.39h4.235c-.01 1.187-.329 2.244-.954 3.171-.624.917-1.463 1.641-2.515 2.172-1.052.521-2.23.782-3.531.782-1.313 0-2.459-.22-3.438-.657a6.71 6.71 0 0 1-2.422-1.812 7.942 7.942 0 0 1-1.453-2.719 11.235 11.235 0 0 1-.484-3.344v-.453c0-1.198.161-2.312.484-3.344.323-1.041.807-1.947 1.453-2.718a6.633 6.633 0 0 1 2.422-1.829c.969-.437 2.104-.656 3.406-.656 1.386 0 2.6.266 3.641.797a5.937 5.937 0 0 1 2.469 2.281c.604.98.911 2.141.922 3.485h-4.235a3.526 3.526 0 0 0-.36-1.531 2.592 2.592 0 0 0-.968-1.094c-.416-.281-.932-.422-1.547-.422-.656 0-1.193.14-1.61.422-.416.27-.739.646-.968 1.125a5.604 5.604 0 0 0-.484 1.61 13.482 13.482 0 0 0-.125 1.874v.453c0 .657.041 1.287.125 1.89.083.605.24 1.142.469 1.61.24.469.567.839.984 1.11.416.27.958.406 1.625.406Zm8.984-5.078v-.328c0-1.24.177-2.38.531-3.422.355-1.052.87-1.964 1.547-2.735a6.931 6.931 0 0 1 2.5-1.796c.99-.438 2.125-.657 3.407-.657 1.28 0 2.421.219 3.421.657a6.902 6.902 0 0 1 2.516 1.796c.688.771 1.208 1.683 1.563 2.735.354 1.041.531 2.182.531 3.422v.328c0 1.229-.177 2.37-.531 3.422a7.982 7.982 0 0 1-1.563 2.734 6.932 6.932 0 0 1-2.5 1.797c-.99.427-2.125.64-3.406.64-1.281 0-2.422-.213-3.422-.64a7.082 7.082 0 0 1-2.516-1.797 8.112 8.112 0 0 1-1.546-2.734c-.355-1.052-.532-2.193-.532-3.422Zm4.5-.328v.328c0 .708.063 1.37.188 1.984.125.615.323 1.156.594 1.625.28.459.645.818 1.093 1.078.448.26.995.39 1.64.39.626 0 1.162-.13 1.61-.39.448-.26.807-.62 1.078-1.078a5.33 5.33 0 0 0 .594-1.625 9.214 9.214 0 0 0 .203-1.984v-.328a8.87 8.87 0 0 0-.203-1.938 5.116 5.116 0 0 0-.61-1.625 3.026 3.026 0 0 0-1.077-1.125c-.448-.27-.99-.406-1.625-.406-.636 0-1.178.135-1.625.406a3.204 3.204 0 0 0-1.079 1.125 5.363 5.363 0 0 0-.593 1.625 9.554 9.554 0 0 0-.188 1.938Zm29.188 4.953V24.5h-11.453v-3.656h11.453ZM109.531 1.75V24.5h-4.687V1.75h4.687ZM131.5 20.453V7.593h4.5V24.5h-4.234l-.266-4.047Zm.5-3.469 1.328-.03c0 1.124-.13 2.171-.39 3.14-.261.958-.652 1.791-1.172 2.5a5.476 5.476 0 0 1-1.969 1.64c-.792.386-1.724.578-2.797.578a7.275 7.275 0 0 1-2.281-.343 4.64 4.64 0 0 1-1.781-1.11c-.49-.51-.876-1.161-1.157-1.953-.271-.802-.406-1.765-.406-2.89V7.594h4.5v10.953c0 .5.057.922.172 1.265.125.344.297.625.515.844.219.219.474.375.766.469.302.094.636.14 1 .14.927 0 1.656-.187 2.188-.562a2.965 2.965 0 0 0 1.14-1.531c.229-.656.344-1.386.344-2.188Zm11.062-9.39 2.797 5.14 2.875-5.14h4.797l-4.781 8.265 5 8.641h-4.812l-3.047-5.438-3.047 5.438h-4.813l5-8.64-4.781-8.266h4.812Zm22.657 12.86V7.593h4.5V24.5h-4.235l-.265-4.047Zm.5-3.47 1.328-.03c0 1.124-.13 2.171-.391 3.14-.26.958-.651 1.791-1.172 2.5a5.472 5.472 0 0 1-1.968 1.64c-.792.386-1.724.578-2.797.578a7.27 7.27 0 0 1-2.281-.343 4.644 4.644 0 0 1-1.782-1.11c-.489-.51-.875-1.161-1.156-1.953-.271-.802-.406-1.765-.406-2.89V7.594h4.5v10.953c0 .5.057.922.172 1.265.125.344.296.625.515.844.219.219.474.375.766.469.302.094.635.14 1 .14.927 0 1.656-.187 2.187-.562a2.967 2.967 0 0 0 1.141-1.531c.229-.656.344-1.386.344-2.188Zm11.937-5.703V24.5h-4.5V7.594h4.235l.265 3.687Zm5.094-3.797-.078 4.172a10.93 10.93 0 0 0-.797-.078 8.113 8.113 0 0 0-.828-.047c-.636 0-1.188.084-1.656.25-.459.156-.844.39-1.157.703a3.067 3.067 0 0 0-.687 1.141 5.604 5.604 0 0 0-.25 1.531l-.906-.281c0-1.094.109-2.099.328-3.016.219-.927.536-1.734.953-2.421.427-.688.948-1.22 1.562-1.594.615-.375 1.318-.563 2.11-.563.25 0 .505.021.765.063.261.031.474.078.641.14Zm7.422 15.11 4.484-15h4.828l-6.796 19.453c-.146.427-.344.885-.594 1.375-.24.49-.568.953-.985 1.39-.406.448-.921.813-1.547 1.094-.614.282-1.369.422-2.265.422-.427 0-.776-.026-1.047-.078a18.386 18.386 0 0 1-.969-.219v-3.297h.36c.125.01.244.016.359.016.594 0 1.078-.068 1.453-.203.375-.136.677-.344.906-.625.23-.271.412-.625.547-1.063l1.266-3.265Zm-1.875-15 3.672 12.25.64 4.765-3.062.328-6.078-17.343h4.828ZM217.016 24.5h-4.954l.032-3.656h4.922c1.229 0 2.265-.276 3.109-.828.844-.563 1.479-1.38 1.906-2.453.438-1.073.657-2.37.657-3.891v-1.11c0-1.166-.126-2.192-.376-3.078-.239-.885-.598-1.63-1.078-2.234a4.506 4.506 0 0 0-1.765-1.36c-.698-.312-1.5-.468-2.407-.468h-5.093V1.75h5.093c1.521 0 2.912.26 4.172.781a9.406 9.406 0 0 1 3.297 2.203c.927.959 1.641 2.105 2.141 3.438.51 1.323.766 2.797.766 4.422v1.078c0 1.614-.256 3.088-.766 4.422-.5 1.333-1.214 2.479-2.141 3.437a9.489 9.489 0 0 1-3.297 2.203c-1.27.51-2.677.766-4.218.766Zm-2.297-22.75V24.5h-4.688V1.75h4.688Zm23.625 23.063c-1.313 0-2.49-.209-3.532-.625-1.041-.428-1.927-1.016-2.656-1.766a7.85 7.85 0 0 1-1.656-2.61 8.795 8.795 0 0 1-.578-3.187V16c0-1.281.182-2.453.547-3.516.364-1.062.885-1.984 1.562-2.765a6.869 6.869 0 0 1 2.5-1.797c.979-.427 2.084-.64 3.313-.64 1.198 0 2.26.197 3.187.593a6.246 6.246 0 0 1 2.328 1.688c.636.729 1.115 1.604 1.438 2.624.323 1.01.484 2.136.484 3.376v1.874h-13.437v-3h9.015v-.343c0-.625-.114-1.182-.343-1.672a2.655 2.655 0 0 0-1-1.188c-.448-.291-1.021-.437-1.719-.437-.594 0-1.104.13-1.531.39-.427.26-.776.626-1.047 1.094a5.922 5.922 0 0 0-.594 1.656 10.537 10.537 0 0 0-.187 2.063v.625c0 .677.093 1.302.281 1.875.198.573.474 1.068.828 1.484.364.417.802.74 1.312.97.521.228 1.11.343 1.766.343a5.48 5.48 0 0 0 2.266-.469 4.912 4.912 0 0 0 1.828-1.453l2.187 2.375c-.354.51-.838 1-1.453 1.469-.604.468-1.333.854-2.187 1.156-.855.292-1.828.438-2.922.438Zm18.64-4.985a1.46 1.46 0 0 0-.281-.875c-.187-.26-.536-.5-1.047-.719-.5-.229-1.224-.437-2.172-.625a16.908 16.908 0 0 1-2.39-.703 8.279 8.279 0 0 1-1.906-1.047 4.542 4.542 0 0 1-1.25-1.437c-.303-.563-.454-1.203-.454-1.922 0-.708.151-1.375.454-2a5.149 5.149 0 0 1 1.328-1.656c.583-.49 1.291-.87 2.125-1.14.843-.282 1.791-.423 2.843-.423 1.469 0 2.73.235 3.782.703 1.062.47 1.875 1.115 2.437 1.938.573.812.859 1.74.859 2.781h-4.5c0-.437-.093-.828-.281-1.172a1.857 1.857 0 0 0-.843-.828c-.376-.208-.865-.312-1.469-.312-.5 0-.933.088-1.297.265a1.988 1.988 0 0 0-.844.688 1.657 1.657 0 0 0-.281.937c0 .26.052.495.156.703.115.198.297.38.547.547.25.167.573.323.969.469.406.135.906.26 1.5.375 1.219.25 2.307.578 3.265.984.959.396 1.719.938 2.282 1.625.562.677.843 1.568.843 2.672 0 .75-.166 1.438-.5 2.063-.333.625-.812 1.172-1.437 1.64-.625.459-1.375.818-2.25 1.078-.865.25-1.839.375-2.922.375-1.573 0-2.906-.28-4-.843-1.083-.563-1.906-1.276-2.469-2.14-.552-.876-.828-1.772-.828-2.688h4.266c.021.614.177 1.109.469 1.484a2.56 2.56 0 0 0 1.14.813c.469.166.974.25 1.516.25.583 0 1.067-.079 1.453-.235.385-.166.677-.385.875-.656.208-.281.312-.604.312-.969Zm15.578-12.234v3.187h-9.843V7.594h9.843Zm-7.406-4.172h4.5v15.984c0 .49.063.865.188 1.125.135.26.333.443.594.547.26.094.588.14.984.14.281 0 .531-.01.75-.03.229-.032.422-.063.578-.094l.016 3.312a8.468 8.468 0 0 1-1.25.297 9.28 9.28 0 0 1-1.485.11c-.989 0-1.854-.162-2.593-.485a3.57 3.57 0 0 1-1.688-1.594c-.396-.729-.594-1.687-.594-2.875V3.422Zm14.719 4.172V24.5h-4.516V7.594h4.516Zm-4.797-4.407c0-.656.229-1.197.688-1.624.458-.428 1.073-.641 1.843-.641.761 0 1.37.213 1.829.64.468.428.703.97.703 1.625 0 .657-.235 1.198-.703 1.626-.459.427-1.068.64-1.829.64-.77 0-1.385-.213-1.843-.64-.459-.428-.688-.97-.688-1.625ZM288 11.204V24.5h-4.5V7.594h4.219l.281 3.61Zm-.656 4.25h-1.219c0-1.25.161-2.375.484-3.375.323-1.01.776-1.87 1.36-2.578a5.837 5.837 0 0 1 2.078-1.64c.812-.386 1.719-.579 2.719-.579.791 0 1.515.115 2.172.344.656.23 1.218.594 1.687 1.094.479.5.844 1.161 1.094 1.984.26.823.39 1.828.39 3.016V24.5h-4.531V13.703c0-.75-.104-1.333-.312-1.75a1.759 1.759 0 0 0-.922-.875c-.396-.177-.886-.265-1.469-.265-.604 0-1.13.12-1.578.359a3.14 3.14 0 0 0-1.094 1 4.729 4.729 0 0 0-.641 1.469 7.242 7.242 0 0 0-.218 1.812Zm23.312 5.235v-7.532c0-.541-.088-1.005-.265-1.39a1.973 1.973 0 0 0-.829-.922c-.364-.219-.838-.328-1.421-.328-.5 0-.933.088-1.297.265a1.877 1.877 0 0 0-.844.735c-.198.312-.297.682-.297 1.109h-4.5c0-.719.167-1.401.5-2.047.333-.646.818-1.213 1.453-1.703.636-.5 1.391-.89 2.266-1.172.885-.281 1.875-.422 2.969-.422 1.312 0 2.479.219 3.5.657 1.02.437 1.823 1.093 2.406 1.968.594.875.891 1.969.891 3.281v7.235c0 .927.057 1.687.171 2.281.115.584.282 1.094.5 1.531v.266h-4.547c-.218-.458-.385-1.031-.5-1.719a14.186 14.186 0 0 1-.156-2.093Zm.594-6.485.031 2.547h-2.515c-.594 0-1.11.068-1.547.203-.438.136-.797.328-1.078.578-.282.24-.49.521-.625.844a2.92 2.92 0 0 0-.188 1.063c0 .385.089.734.266 1.046.177.302.432.542.765.72.334.166.724.25 1.172.25.677 0 1.266-.136 1.766-.407.5-.271.885-.604 1.156-1 .281-.396.427-.771.438-1.125l1.187 1.906c-.167.427-.396.87-.687 1.328-.282.459-.641.89-1.079 1.297a5.546 5.546 0 0 1-1.578.985c-.614.25-1.343.375-2.187.375-1.073 0-2.047-.214-2.922-.641a5.33 5.33 0 0 1-2.063-1.797c-.5-.77-.75-1.646-.75-2.625 0-.885.167-1.672.5-2.36a4.61 4.61 0 0 1 1.469-1.734c.657-.479 1.474-.838 2.453-1.078.98-.25 2.115-.375 3.407-.375h2.609Zm15.688-6.61v3.188h-9.844V7.594h9.844Zm-7.407-4.171h4.5v15.984c0 .49.063.865.188 1.125.135.26.333.443.593.547.261.094.589.14.985.14.281 0 .531-.01.75-.03.229-.032.422-.063.578-.094l.016 3.312a8.468 8.468 0 0 1-1.25.297 9.28 9.28 0 0 1-1.485.11c-.989 0-1.854-.162-2.594-.485a3.573 3.573 0 0 1-1.687-1.594c-.396-.729-.594-1.687-.594-2.875V3.422Zm14.719 4.172V24.5h-4.516V7.594h4.516Zm-4.797-4.407c0-.656.229-1.197.688-1.624.458-.428 1.073-.641 1.843-.641.761 0 1.37.213 1.828.64.469.428.704.97.704 1.625 0 .657-.235 1.198-.704 1.626-.458.427-1.067.64-1.828.64-.77 0-1.385-.213-1.843-.64-.459-.428-.688-.97-.688-1.625Zm7.797 13.032v-.328c0-1.24.177-2.38.531-3.422.354-1.052.87-1.964 1.547-2.735a6.936 6.936 0 0 1 2.5-1.796c.99-.438 2.125-.657 3.406-.657 1.282 0 2.422.219 3.422.657a6.902 6.902 0 0 1 2.516 1.796c.687.771 1.208 1.683 1.562 2.735.355 1.041.532 2.182.532 3.422v.328c0 1.229-.177 2.37-.532 3.422a7.978 7.978 0 0 1-1.562 2.734 6.936 6.936 0 0 1-2.5 1.797c-.99.427-2.125.64-3.406.64-1.282 0-2.422-.213-3.422-.64a7.084 7.084 0 0 1-2.516-1.797 8.111 8.111 0 0 1-1.547-2.734c-.354-1.052-.531-2.193-.531-3.422Zm4.5-.328v.328c0 .708.062 1.37.188 1.984a5.33 5.33 0 0 0 .593 1.625c.281.459.646.818 1.094 1.078.448.26.995.39 1.641.39.625 0 1.161-.13 1.609-.39.448-.26.807-.62 1.078-1.078.271-.469.469-1.01.594-1.625a9.24 9.24 0 0 0 .203-1.984v-.328a8.87 8.87 0 0 0-.203-1.938 5.12 5.12 0 0 0-.609-1.625 3.03 3.03 0 0 0-1.079-1.125c-.448-.27-.989-.406-1.625-.406-.635 0-1.177.135-1.625.406a3.2 3.2 0 0 0-1.078 1.125 5.331 5.331 0 0 0-.593 1.625 9.482 9.482 0 0 0-.188 1.938Zm18.688-4.688V24.5h-4.5V7.594h4.218l.282 3.61Zm-.657 4.25h-1.219c0-1.25.162-2.375.485-3.375.323-1.01.776-1.87 1.359-2.578a5.846 5.846 0 0 1 2.078-1.64c.813-.386 1.719-.579 2.719-.579.792 0 1.516.115 2.172.344a4.15 4.15 0 0 1 1.687 1.094c.48.5.844 1.161 1.094 1.984.261.823.391 1.828.391 3.016V24.5h-4.531V13.703c0-.75-.105-1.333-.313-1.75a1.752 1.752 0 0 0-.922-.875c-.396-.177-.885-.265-1.469-.265-.604 0-1.13.12-1.578.359-.437.24-.802.573-1.093 1A4.705 4.705 0 0 0 360 13.64a7.195 7.195 0 0 0-.219 1.812Zm23.328 4.375a1.46 1.46 0 0 0-.281-.875c-.187-.26-.536-.5-1.047-.719-.5-.229-1.224-.437-2.172-.625a16.908 16.908 0 0 1-2.39-.703 8.307 8.307 0 0 1-1.907-1.047 4.567 4.567 0 0 1-1.25-1.437c-.302-.563-.453-1.203-.453-1.922 0-.708.151-1.375.453-2a5.165 5.165 0 0 1 1.329-1.656c.583-.49 1.291-.87 2.125-1.14.843-.282 1.791-.423 2.843-.423 1.469 0 2.73.235 3.782.703 1.062.47 1.875 1.115 2.437 1.938.573.812.86 1.74.86 2.781h-4.5c0-.437-.094-.828-.282-1.172a1.854 1.854 0 0 0-.844-.828c-.374-.208-.864-.312-1.468-.312-.5 0-.933.088-1.297.265a1.988 1.988 0 0 0-.844.688 1.657 1.657 0 0 0-.281.937c0 .26.052.495.156.703.115.198.297.38.547.547.25.167.573.323.969.469.406.135.906.26 1.5.375 1.218.25 2.307.578 3.265.984.959.396 1.719.938 2.282 1.625.562.677.843 1.568.843 2.672 0 .75-.166 1.438-.5 2.063-.333.625-.812 1.172-1.437 1.64-.625.459-1.375.818-2.25 1.078-.865.25-1.839.375-2.922.375-1.573 0-2.906-.28-4-.843-1.083-.563-1.906-1.276-2.469-2.14-.552-.876-.828-1.772-.828-2.688h4.266c.021.614.177 1.109.468 1.484.303.375.683.646 1.141.813.469.166.974.25 1.516.25.583 0 1.067-.079 1.453-.235.385-.166.677-.385.875-.656.208-.281.312-.604.312-.969Z" fill="#26532B"/>
</svg>
