<svg width="388" height="32" viewBox="0 0 388 32" fill="none" xmlns="http://www.w3.org/2000/svg">
<path d="M2.17188 1.75H6.14062L11.9844 18.4531L17.8281 1.75H21.7969L13.5781 24.5H10.3906L2.17188 1.75ZM0.03125 1.75H3.98438L4.70312 18.0312V24.5H0.03125V1.75ZM19.9844 1.75H23.9531V24.5H19.2656V18.0312L19.9844 1.75ZM35.5625 24.8125C34.25 24.8125 33.0729 24.6042 32.0312 24.1875C30.9896 23.7604 30.1042 23.1719 29.375 22.4219C28.6562 21.6719 28.1042 20.8021 27.7188 19.8125C27.3333 18.8125 27.1406 17.75 27.1406 16.625V16C27.1406 14.7188 27.3229 13.5469 27.6875 12.4844C28.0521 11.4219 28.5729 10.5 29.25 9.71875C29.9375 8.9375 30.7708 8.33854 31.75 7.92188C32.7292 7.49479 33.8333 7.28125 35.0625 7.28125C36.2604 7.28125 37.3229 7.47917 38.25 7.875C39.1771 8.27083 39.9531 8.83333 40.5781 9.5625C41.2135 10.2917 41.6927 11.1667 42.0156 12.1875C42.3385 13.1979 42.5 14.3229 42.5 15.5625V17.4375H29.0625V14.4375H38.0781V14.0938C38.0781 13.4688 37.9635 12.9115 37.7344 12.4219C37.5156 11.9219 37.1823 11.526 36.7344 11.2344C36.2865 10.9427 35.7135 10.7969 35.0156 10.7969C34.4219 10.7969 33.9115 10.9271 33.4844 11.1875C33.0573 11.4479 32.7083 11.8125 32.4375 12.2812C32.1771 12.75 31.9792 13.3021 31.8438 13.9375C31.7188 14.5625 31.6562 15.25 31.6562 16V16.625C31.6562 17.3021 31.75 17.9271 31.9375 18.5C32.1354 19.0729 32.4115 19.5677 32.7656 19.9844C33.1302 20.401 33.5677 20.724 34.0781 20.9531C34.599 21.1823 35.1875 21.2969 35.8438 21.2969C36.6562 21.2969 37.4115 21.1406 38.1094 20.8281C38.8177 20.5052 39.4271 20.0208 39.9375 19.375L42.125 21.75C41.7708 22.2604 41.2865 22.75 40.6719 23.2188C40.0677 23.6875 39.3385 24.0729 38.4844 24.375C37.6302 24.6667 36.6562 24.8125 35.5625 24.8125ZM48.6875 7.59375L51.4844 12.7344L54.3594 7.59375H59.1562L54.375 15.8594L59.375 24.5H54.5625L51.5156 19.0625L48.4688 24.5H43.6562L48.6562 15.8594L43.875 7.59375H48.6875ZM66.0938 7.59375V24.5H61.5781V7.59375H66.0938ZM61.2969 3.1875C61.2969 2.53125 61.526 1.98958 61.9844 1.5625C62.4427 1.13542 63.0573 0.921875 63.8281 0.921875C64.5885 0.921875 65.1979 1.13542 65.6562 1.5625C66.125 1.98958 66.3594 2.53125 66.3594 3.1875C66.3594 3.84375 66.125 4.38542 65.6562 4.8125C65.1979 5.23958 64.5885 5.45312 63.8281 5.45312C63.0573 5.45312 62.4427 5.23958 61.9844 4.8125C61.526 4.38542 61.2969 3.84375 61.2969 3.1875ZM76.7969 21.2969C77.349 21.2969 77.8385 21.1927 78.2656 20.9844C78.6927 20.7656 79.026 20.4635 79.2656 20.0781C79.5156 19.6823 79.6458 19.2188 79.6562 18.6875H83.8906C83.8802 19.875 83.5625 20.9323 82.9375 21.8594C82.3125 22.776 81.474 23.5 80.4219 24.0312C79.3698 24.5521 78.1927 24.8125 76.8906 24.8125C75.5781 24.8125 74.4323 24.5938 73.4531 24.1562C72.4844 23.7188 71.6771 23.1146 71.0312 22.3438C70.3854 21.5625 69.901 20.6562 69.5781 19.625C69.2552 18.5833 69.0938 17.4688 69.0938 16.2812V15.8281C69.0938 14.6302 69.2552 13.5156 69.5781 12.4844C69.901 11.4427 70.3854 10.5365 71.0312 9.76562C71.6771 8.98438 72.4844 8.375 73.4531 7.9375C74.4219 7.5 75.5573 7.28125 76.8594 7.28125C78.2448 7.28125 79.4583 7.54688 80.5 8.07812C81.5521 8.60938 82.375 9.36979 82.9688 10.3594C83.5729 11.3385 83.8802 12.5 83.8906 13.8438H79.6562C79.6458 13.2812 79.526 12.7708 79.2969 12.3125C79.0781 11.8542 78.7552 11.4896 78.3281 11.2188C77.9115 10.9375 77.3958 10.7969 76.7812 10.7969C76.125 10.7969 75.5885 10.9375 75.1719 11.2188C74.7552 11.4896 74.4323 11.8646 74.2031 12.3438C73.974 12.8125 73.8125 13.349 73.7188 13.9531C73.6354 14.5469 73.5938 15.1719 73.5938 15.8281V16.2812C73.5938 16.9375 73.6354 17.5677 73.7188 18.1719C73.8021 18.776 73.9583 19.3125 74.1875 19.7812C74.4271 20.25 74.7552 20.6198 75.1719 20.8906C75.5885 21.1615 76.1302 21.2969 76.7969 21.2969ZM85.7812 16.2188V15.8906C85.7812 14.651 85.9583 13.5104 86.3125 12.4688C86.6667 11.4167 87.1823 10.5052 87.8594 9.73438C88.5365 8.96354 89.3698 8.36458 90.3594 7.9375C91.349 7.5 92.4844 7.28125 93.7656 7.28125C95.0469 7.28125 96.1875 7.5 97.1875 7.9375C98.1875 8.36458 99.026 8.96354 99.7031 9.73438C100.391 10.5052 100.911 11.4167 101.266 12.4688C101.62 13.5104 101.797 14.651 101.797 15.8906V16.2188C101.797 17.4479 101.62 18.5885 101.266 19.6406C100.911 20.6823 100.391 21.5938 99.7031 22.375C99.026 23.1458 98.1927 23.7448 97.2031 24.1719C96.2135 24.599 95.0781 24.8125 93.7969 24.8125C92.5156 24.8125 91.375 24.599 90.375 24.1719C89.3854 23.7448 88.5469 23.1458 87.8594 22.375C87.1823 21.5938 86.6667 20.6823 86.3125 19.6406C85.9583 18.5885 85.7812 17.4479 85.7812 16.2188ZM90.2812 15.8906V16.2188C90.2812 16.9271 90.3438 17.5885 90.4688 18.2031C90.5938 18.8177 90.7917 19.3594 91.0625 19.8281C91.3438 20.2865 91.7083 20.6458 92.1562 20.9062C92.6042 21.1667 93.151 21.2969 93.7969 21.2969C94.4219 21.2969 94.9583 21.1667 95.4062 20.9062C95.8542 20.6458 96.2135 20.2865 96.4844 19.8281C96.7552 19.3594 96.9531 18.8177 97.0781 18.2031C97.2135 17.5885 97.2812 16.9271 97.2812 16.2188V15.8906C97.2812 15.2031 97.2135 14.5573 97.0781 13.9531C96.9531 13.3385 96.75 12.7969 96.4688 12.3281C96.1979 11.849 95.8385 11.474 95.3906 11.2031C94.9427 10.9323 94.401 10.7969 93.7656 10.7969C93.1302 10.7969 92.5885 10.9323 92.1406 11.2031C91.7031 11.474 91.3438 11.849 91.0625 12.3281C90.7917 12.7969 90.5938 13.3385 90.4688 13.9531C90.3438 14.5573 90.2812 15.2031 90.2812 15.8906ZM119.469 20.8438V24.5H108.016V20.8438H119.469ZM109.531 1.75V24.5H104.844V1.75H109.531ZM131.5 20.4531V7.59375H136V24.5H131.766L131.5 20.4531ZM132 16.9844L133.328 16.9531C133.328 18.0781 133.198 19.125 132.938 20.0938C132.677 21.0521 132.286 21.8854 131.766 22.5938C131.245 23.2917 130.589 23.8385 129.797 24.2344C129.005 24.6198 128.073 24.8125 127 24.8125C126.177 24.8125 125.417 24.6979 124.719 24.4688C124.031 24.2292 123.438 23.8594 122.938 23.3594C122.448 22.849 122.062 22.1979 121.781 21.4062C121.51 20.6042 121.375 19.6406 121.375 18.5156V7.59375H125.875V18.5469C125.875 19.0469 125.932 19.4688 126.047 19.8125C126.172 20.1562 126.344 20.4375 126.562 20.6562C126.781 20.875 127.036 21.0312 127.328 21.125C127.63 21.2188 127.964 21.2656 128.328 21.2656C129.255 21.2656 129.984 21.0781 130.516 20.7031C131.057 20.3281 131.438 19.8177 131.656 19.1719C131.885 18.5156 132 17.7865 132 16.9844ZM143.062 7.59375L145.859 12.7344L148.734 7.59375H153.531L148.75 15.8594L153.75 24.5H148.938L145.891 19.0625L142.844 24.5H138.031L143.031 15.8594L138.25 7.59375H143.062ZM165.719 20.4531V7.59375H170.219V24.5H165.984L165.719 20.4531ZM166.219 16.9844L167.547 16.9531C167.547 18.0781 167.417 19.125 167.156 20.0938C166.896 21.0521 166.505 21.8854 165.984 22.5938C165.464 23.2917 164.807 23.8385 164.016 24.2344C163.224 24.6198 162.292 24.8125 161.219 24.8125C160.396 24.8125 159.635 24.6979 158.938 24.4688C158.25 24.2292 157.656 23.8594 157.156 23.3594C156.667 22.849 156.281 22.1979 156 21.4062C155.729 20.6042 155.594 19.6406 155.594 18.5156V7.59375H160.094V18.5469C160.094 19.0469 160.151 19.4688 160.266 19.8125C160.391 20.1562 160.562 20.4375 160.781 20.6562C161 20.875 161.255 21.0312 161.547 21.125C161.849 21.2188 162.182 21.2656 162.547 21.2656C163.474 21.2656 164.203 21.0781 164.734 20.7031C165.276 20.3281 165.656 19.8177 165.875 19.1719C166.104 18.5156 166.219 17.7865 166.219 16.9844ZM178.156 11.2812V24.5H173.656V7.59375H177.891L178.156 11.2812ZM183.25 7.48438L183.172 11.6562C182.953 11.625 182.688 11.599 182.375 11.5781C182.073 11.5469 181.797 11.5312 181.547 11.5312C180.911 11.5312 180.359 11.6146 179.891 11.7812C179.432 11.9375 179.047 12.1719 178.734 12.4844C178.432 12.7969 178.203 13.1771 178.047 13.625C177.901 14.0729 177.818 14.5833 177.797 15.1562L176.891 14.875C176.891 13.7812 177 12.776 177.219 11.8594C177.438 10.9323 177.755 10.125 178.172 9.4375C178.599 8.75 179.12 8.21875 179.734 7.84375C180.349 7.46875 181.052 7.28125 181.844 7.28125C182.094 7.28125 182.349 7.30208 182.609 7.34375C182.87 7.375 183.083 7.42188 183.25 7.48438ZM190.672 22.5938L195.156 7.59375H199.984L193.188 27.0469C193.042 27.474 192.844 27.9323 192.594 28.4219C192.354 28.9115 192.026 29.375 191.609 29.8125C191.203 30.2604 190.688 30.625 190.062 30.9062C189.448 31.1875 188.693 31.3281 187.797 31.3281C187.37 31.3281 187.021 31.3021 186.75 31.25C186.479 31.1979 186.156 31.125 185.781 31.0312V27.7344C185.896 27.7344 186.016 27.7344 186.141 27.7344C186.266 27.7448 186.385 27.75 186.5 27.75C187.094 27.75 187.578 27.6823 187.953 27.5469C188.328 27.4115 188.63 27.2031 188.859 26.9219C189.089 26.651 189.271 26.2969 189.406 25.8594L190.672 22.5938ZM188.797 7.59375L192.469 19.8438L193.109 24.6094L190.047 24.9375L183.969 7.59375H188.797ZM217.016 24.5H212.062L212.094 20.8438H217.016C218.245 20.8438 219.281 20.5677 220.125 20.0156C220.969 19.4531 221.604 18.6354 222.031 17.5625C222.469 16.4896 222.688 15.1927 222.688 13.6719V12.5625C222.688 11.3958 222.562 10.3698 222.312 9.48438C222.073 8.59896 221.714 7.85417 221.234 7.25C220.755 6.64583 220.167 6.19271 219.469 5.89062C218.771 5.57812 217.969 5.42188 217.062 5.42188H211.969V1.75H217.062C218.583 1.75 219.974 2.01042 221.234 2.53125C222.505 3.04167 223.604 3.77604 224.531 4.73438C225.458 5.69271 226.172 6.83854 226.672 8.17188C227.182 9.49479 227.438 10.9688 227.438 12.5938V13.6719C227.438 15.2865 227.182 16.7604 226.672 18.0938C226.172 19.4271 225.458 20.5729 224.531 21.5312C223.615 22.4792 222.516 23.2135 221.234 23.7344C219.964 24.2448 218.557 24.5 217.016 24.5ZM214.719 1.75V24.5H210.031V1.75H214.719ZM238.344 24.8125C237.031 24.8125 235.854 24.6042 234.812 24.1875C233.771 23.7604 232.885 23.1719 232.156 22.4219C231.438 21.6719 230.885 20.8021 230.5 19.8125C230.115 18.8125 229.922 17.75 229.922 16.625V16C229.922 14.7188 230.104 13.5469 230.469 12.4844C230.833 11.4219 231.354 10.5 232.031 9.71875C232.719 8.9375 233.552 8.33854 234.531 7.92188C235.51 7.49479 236.615 7.28125 237.844 7.28125C239.042 7.28125 240.104 7.47917 241.031 7.875C241.958 8.27083 242.734 8.83333 243.359 9.5625C243.995 10.2917 244.474 11.1667 244.797 12.1875C245.12 13.1979 245.281 14.3229 245.281 15.5625V17.4375H231.844V14.4375H240.859V14.0938C240.859 13.4688 240.745 12.9115 240.516 12.4219C240.297 11.9219 239.964 11.526 239.516 11.2344C239.068 10.9427 238.495 10.7969 237.797 10.7969C237.203 10.7969 236.693 10.9271 236.266 11.1875C235.839 11.4479 235.49 11.8125 235.219 12.2812C234.958 12.75 234.76 13.3021 234.625 13.9375C234.5 14.5625 234.438 15.25 234.438 16V16.625C234.438 17.3021 234.531 17.9271 234.719 18.5C234.917 19.0729 235.193 19.5677 235.547 19.9844C235.911 20.401 236.349 20.724 236.859 20.9531C237.38 21.1823 237.969 21.2969 238.625 21.2969C239.438 21.2969 240.193 21.1406 240.891 20.8281C241.599 20.5052 242.208 20.0208 242.719 19.375L244.906 21.75C244.552 22.2604 244.068 22.75 243.453 23.2188C242.849 23.6875 242.12 24.0729 241.266 24.375C240.411 24.6667 239.438 24.8125 238.344 24.8125ZM256.984 19.8281C256.984 19.5052 256.891 19.2135 256.703 18.9531C256.516 18.6927 256.167 18.4531 255.656 18.2344C255.156 18.0052 254.432 17.7969 253.484 17.6094C252.63 17.4219 251.833 17.1875 251.094 16.9062C250.365 16.6146 249.729 16.2656 249.188 15.8594C248.656 15.4531 248.24 14.974 247.938 14.4219C247.635 13.8594 247.484 13.2188 247.484 12.5C247.484 11.7917 247.635 11.125 247.938 10.5C248.25 9.875 248.693 9.32292 249.266 8.84375C249.849 8.35417 250.557 7.97396 251.391 7.70312C252.234 7.42188 253.182 7.28125 254.234 7.28125C255.703 7.28125 256.964 7.51562 258.016 7.98438C259.078 8.45312 259.891 9.09896 260.453 9.92188C261.026 10.7344 261.312 11.6615 261.312 12.7031H256.812C256.812 12.2656 256.719 11.875 256.531 11.5312C256.354 11.1771 256.073 10.901 255.688 10.7031C255.312 10.4948 254.823 10.3906 254.219 10.3906C253.719 10.3906 253.286 10.4792 252.922 10.6562C252.557 10.8229 252.276 11.0521 252.078 11.3438C251.891 11.625 251.797 11.9375 251.797 12.2812C251.797 12.5417 251.849 12.776 251.953 12.9844C252.068 13.1823 252.25 13.3646 252.5 13.5312C252.75 13.6979 253.073 13.8542 253.469 14C253.875 14.1354 254.375 14.2604 254.969 14.375C256.188 14.625 257.276 14.9531 258.234 15.3594C259.193 15.7552 259.953 16.2969 260.516 16.9844C261.078 17.6615 261.359 18.5521 261.359 19.6562C261.359 20.4062 261.193 21.0938 260.859 21.7188C260.526 22.3438 260.047 22.8906 259.422 23.3594C258.797 23.8177 258.047 24.1771 257.172 24.4375C256.307 24.6875 255.333 24.8125 254.25 24.8125C252.677 24.8125 251.344 24.5312 250.25 23.9688C249.167 23.4062 248.344 22.6927 247.781 21.8281C247.229 20.9531 246.953 20.0573 246.953 19.1406H251.219C251.24 19.7552 251.396 20.25 251.688 20.625C251.99 21 252.37 21.2708 252.828 21.4375C253.297 21.6042 253.802 21.6875 254.344 21.6875C254.927 21.6875 255.411 21.6094 255.797 21.4531C256.182 21.2865 256.474 21.0677 256.672 20.7969C256.88 20.5156 256.984 20.1927 256.984 19.8281ZM272.562 7.59375V10.7812H262.719V7.59375H272.562ZM265.156 3.42188H269.656V19.4062C269.656 19.8958 269.719 20.2708 269.844 20.5312C269.979 20.7917 270.177 20.974 270.438 21.0781C270.698 21.1719 271.026 21.2188 271.422 21.2188C271.703 21.2188 271.953 21.2083 272.172 21.1875C272.401 21.1562 272.594 21.125 272.75 21.0938L272.766 24.4062C272.38 24.5312 271.964 24.6302 271.516 24.7031C271.068 24.776 270.573 24.8125 270.031 24.8125C269.042 24.8125 268.177 24.651 267.438 24.3281C266.708 23.9948 266.146 23.4635 265.75 22.7344C265.354 22.0052 265.156 21.0469 265.156 19.8594V3.42188ZM279.875 7.59375V24.5H275.359V7.59375H279.875ZM275.078 3.1875C275.078 2.53125 275.307 1.98958 275.766 1.5625C276.224 1.13542 276.839 0.921875 277.609 0.921875C278.37 0.921875 278.979 1.13542 279.438 1.5625C279.906 1.98958 280.141 2.53125 280.141 3.1875C280.141 3.84375 279.906 4.38542 279.438 4.8125C278.979 5.23958 278.37 5.45312 277.609 5.45312C276.839 5.45312 276.224 5.23958 275.766 4.8125C275.307 4.38542 275.078 3.84375 275.078 3.1875ZM288 11.2031V24.5H283.5V7.59375H287.719L288 11.2031ZM287.344 15.4531H286.125C286.125 14.2031 286.286 13.0781 286.609 12.0781C286.932 11.0677 287.385 10.2083 287.969 9.5C288.552 8.78125 289.245 8.23438 290.047 7.85938C290.859 7.47396 291.766 7.28125 292.766 7.28125C293.557 7.28125 294.281 7.39583 294.938 7.625C295.594 7.85417 296.156 8.21875 296.625 8.71875C297.104 9.21875 297.469 9.88021 297.719 10.7031C297.979 11.526 298.109 12.5312 298.109 13.7188V24.5H293.578V13.7031C293.578 12.9531 293.474 12.3698 293.266 11.9531C293.057 11.5365 292.75 11.2448 292.344 11.0781C291.948 10.901 291.458 10.8125 290.875 10.8125C290.271 10.8125 289.745 10.9323 289.297 11.1719C288.859 11.4115 288.495 11.7448 288.203 12.1719C287.922 12.5885 287.708 13.0781 287.562 13.6406C287.417 14.2031 287.344 14.8073 287.344 15.4531ZM310.656 20.6875V13.1562C310.656 12.6146 310.568 12.151 310.391 11.7656C310.214 11.3698 309.938 11.0625 309.562 10.8438C309.198 10.625 308.724 10.5156 308.141 10.5156C307.641 10.5156 307.208 10.6042 306.844 10.7812C306.479 10.9479 306.198 11.1927 306 11.5156C305.802 11.8281 305.703 12.1979 305.703 12.625H301.203C301.203 11.9062 301.37 11.224 301.703 10.5781C302.036 9.93229 302.521 9.36458 303.156 8.875C303.792 8.375 304.547 7.98438 305.422 7.70312C306.307 7.42188 307.297 7.28125 308.391 7.28125C309.703 7.28125 310.87 7.5 311.891 7.9375C312.911 8.375 313.714 9.03125 314.297 9.90625C314.891 10.7812 315.188 11.875 315.188 13.1875V20.4219C315.188 21.349 315.245 22.1094 315.359 22.7031C315.474 23.2865 315.641 23.7969 315.859 24.2344V24.5H311.312C311.094 24.0417 310.927 23.4688 310.812 22.7812C310.708 22.0833 310.656 21.3854 310.656 20.6875ZM311.25 14.2031L311.281 16.75H308.766C308.172 16.75 307.656 16.8177 307.219 16.9531C306.781 17.0885 306.422 17.2812 306.141 17.5312C305.859 17.7708 305.651 18.0521 305.516 18.375C305.391 18.6979 305.328 19.0521 305.328 19.4375C305.328 19.8229 305.417 20.1719 305.594 20.4844C305.771 20.7865 306.026 21.026 306.359 21.2031C306.693 21.3698 307.083 21.4531 307.531 21.4531C308.208 21.4531 308.797 21.3177 309.297 21.0469C309.797 20.776 310.182 20.4427 310.453 20.0469C310.734 19.651 310.88 19.276 310.891 18.9219L312.078 20.8281C311.911 21.2552 311.682 21.6979 311.391 22.1562C311.109 22.6146 310.75 23.0469 310.312 23.4531C309.875 23.849 309.349 24.1771 308.734 24.4375C308.12 24.6875 307.391 24.8125 306.547 24.8125C305.474 24.8125 304.5 24.599 303.625 24.1719C302.76 23.7344 302.073 23.1354 301.562 22.375C301.062 21.6042 300.812 20.7292 300.812 19.75C300.812 18.8646 300.979 18.0781 301.312 17.3906C301.646 16.7031 302.135 16.125 302.781 15.6562C303.438 15.1771 304.255 14.8177 305.234 14.5781C306.214 14.3281 307.349 14.2031 308.641 14.2031H311.25ZM326.938 7.59375V10.7812H317.094V7.59375H326.938ZM319.531 3.42188H324.031V19.4062C324.031 19.8958 324.094 20.2708 324.219 20.5312C324.354 20.7917 324.552 20.974 324.812 21.0781C325.073 21.1719 325.401 21.2188 325.797 21.2188C326.078 21.2188 326.328 21.2083 326.547 21.1875C326.776 21.1562 326.969 21.125 327.125 21.0938L327.141 24.4062C326.755 24.5312 326.339 24.6302 325.891 24.7031C325.443 24.776 324.948 24.8125 324.406 24.8125C323.417 24.8125 322.552 24.651 321.812 24.3281C321.083 23.9948 320.521 23.4635 320.125 22.7344C319.729 22.0052 319.531 21.0469 319.531 19.8594V3.42188ZM334.25 7.59375V24.5H329.734V7.59375H334.25ZM329.453 3.1875C329.453 2.53125 329.682 1.98958 330.141 1.5625C330.599 1.13542 331.214 0.921875 331.984 0.921875C332.745 0.921875 333.354 1.13542 333.812 1.5625C334.281 1.98958 334.516 2.53125 334.516 3.1875C334.516 3.84375 334.281 4.38542 333.812 4.8125C333.354 5.23958 332.745 5.45312 331.984 5.45312C331.214 5.45312 330.599 5.23958 330.141 4.8125C329.682 4.38542 329.453 3.84375 329.453 3.1875ZM337.25 16.2188V15.8906C337.25 14.651 337.427 13.5104 337.781 12.4688C338.135 11.4167 338.651 10.5052 339.328 9.73438C340.005 8.96354 340.839 8.36458 341.828 7.9375C342.818 7.5 343.953 7.28125 345.234 7.28125C346.516 7.28125 347.656 7.5 348.656 7.9375C349.656 8.36458 350.495 8.96354 351.172 9.73438C351.859 10.5052 352.38 11.4167 352.734 12.4688C353.089 13.5104 353.266 14.651 353.266 15.8906V16.2188C353.266 17.4479 353.089 18.5885 352.734 19.6406C352.38 20.6823 351.859 21.5938 351.172 22.375C350.495 23.1458 349.661 23.7448 348.672 24.1719C347.682 24.599 346.547 24.8125 345.266 24.8125C343.984 24.8125 342.844 24.599 341.844 24.1719C340.854 23.7448 340.016 23.1458 339.328 22.375C338.651 21.5938 338.135 20.6823 337.781 19.6406C337.427 18.5885 337.25 17.4479 337.25 16.2188ZM341.75 15.8906V16.2188C341.75 16.9271 341.812 17.5885 341.938 18.2031C342.062 18.8177 342.26 19.3594 342.531 19.8281C342.812 20.2865 343.177 20.6458 343.625 20.9062C344.073 21.1667 344.62 21.2969 345.266 21.2969C345.891 21.2969 346.427 21.1667 346.875 20.9062C347.323 20.6458 347.682 20.2865 347.953 19.8281C348.224 19.3594 348.422 18.8177 348.547 18.2031C348.682 17.5885 348.75 16.9271 348.75 16.2188V15.8906C348.75 15.2031 348.682 14.5573 348.547 13.9531C348.422 13.3385 348.219 12.7969 347.938 12.3281C347.667 11.849 347.307 11.474 346.859 11.2031C346.411 10.9323 345.87 10.7969 345.234 10.7969C344.599 10.7969 344.057 10.9323 343.609 11.2031C343.172 11.474 342.812 11.849 342.531 12.3281C342.26 12.7969 342.062 13.3385 341.938 13.9531C341.812 14.5573 341.75 15.2031 341.75 15.8906ZM360.438 11.2031V24.5H355.938V7.59375H360.156L360.438 11.2031ZM359.781 15.4531H358.562C358.562 14.2031 358.724 13.0781 359.047 12.0781C359.37 11.0677 359.823 10.2083 360.406 9.5C360.99 8.78125 361.682 8.23438 362.484 7.85938C363.297 7.47396 364.203 7.28125 365.203 7.28125C365.995 7.28125 366.719 7.39583 367.375 7.625C368.031 7.85417 368.594 8.21875 369.062 8.71875C369.542 9.21875 369.906 9.88021 370.156 10.7031C370.417 11.526 370.547 12.5312 370.547 13.7188V24.5H366.016V13.7031C366.016 12.9531 365.911 12.3698 365.703 11.9531C365.495 11.5365 365.188 11.2448 364.781 11.0781C364.385 10.901 363.896 10.8125 363.312 10.8125C362.708 10.8125 362.182 10.9323 361.734 11.1719C361.297 11.4115 360.932 11.7448 360.641 12.1719C360.359 12.5885 360.146 13.0781 360 13.6406C359.854 14.2031 359.781 14.8073 359.781 15.4531ZM383.109 19.8281C383.109 19.5052 383.016 19.2135 382.828 18.9531C382.641 18.6927 382.292 18.4531 381.781 18.2344C381.281 18.0052 380.557 17.7969 379.609 17.6094C378.755 17.4219 377.958 17.1875 377.219 16.9062C376.49 16.6146 375.854 16.2656 375.312 15.8594C374.781 15.4531 374.365 14.974 374.062 14.4219C373.76 13.8594 373.609 13.2188 373.609 12.5C373.609 11.7917 373.76 11.125 374.062 10.5C374.375 9.875 374.818 9.32292 375.391 8.84375C375.974 8.35417 376.682 7.97396 377.516 7.70312C378.359 7.42188 379.307 7.28125 380.359 7.28125C381.828 7.28125 383.089 7.51562 384.141 7.98438C385.203 8.45312 386.016 9.09896 386.578 9.92188C387.151 10.7344 387.438 11.6615 387.438 12.7031H382.938C382.938 12.2656 382.844 11.875 382.656 11.5312C382.479 11.1771 382.198 10.901 381.812 10.7031C381.438 10.4948 380.948 10.3906 380.344 10.3906C379.844 10.3906 379.411 10.4792 379.047 10.6562C378.682 10.8229 378.401 11.0521 378.203 11.3438C378.016 11.625 377.922 11.9375 377.922 12.2812C377.922 12.5417 377.974 12.776 378.078 12.9844C378.193 13.1823 378.375 13.3646 378.625 13.5312C378.875 13.6979 379.198 13.8542 379.594 14C380 14.1354 380.5 14.2604 381.094 14.375C382.312 14.625 383.401 14.9531 384.359 15.3594C385.318 15.7552 386.078 16.2969 386.641 16.9844C387.203 17.6615 387.484 18.5521 387.484 19.6562C387.484 20.4062 387.318 21.0938 386.984 21.7188C386.651 22.3438 386.172 22.8906 385.547 23.3594C384.922 23.8177 384.172 24.1771 383.297 24.4375C382.432 24.6875 381.458 24.8125 380.375 24.8125C378.802 24.8125 377.469 24.5312 376.375 23.9688C375.292 23.4062 374.469 22.6927 373.906 21.8281C373.354 20.9531 373.078 20.0573 373.078 19.1406H377.344C377.365 19.7552 377.521 20.25 377.812 20.625C378.115 21 378.495 21.2708 378.953 21.4375C379.422 21.6042 379.927 21.6875 380.469 21.6875C381.052 21.6875 381.536 21.6094 381.922 21.4531C382.307 21.2865 382.599 21.0677 382.797 20.7969C383.005 20.5156 383.109 20.1927 383.109 19.8281Z" fill="#26532B"/>
</svg>
