<svg width="461" height="37" viewBox="0 0 461 37" fill="none" xmlns="http://www.w3.org/2000/svg">
<path d="M2.9541 0.984375H7.66699L14.6064 20.8193L21.5459 0.984375H26.2588L16.499 28H12.7139L2.9541 0.984375ZM0.412109 0.984375H5.10645L5.95996 20.3184V28H0.412109V0.984375ZM24.1064 0.984375H28.8193V28H23.2529V20.3184L24.1064 0.984375ZM42.6055 28.3711C41.0469 28.3711 39.6491 28.1237 38.4121 27.6289C37.1751 27.1217 36.1237 26.4229 35.2578 25.5322C34.4043 24.6416 33.7487 23.6087 33.291 22.4336C32.8333 21.2461 32.6045 19.9844 32.6045 18.6484V17.9062C32.6045 16.3848 32.821 14.9932 33.2539 13.7314C33.6868 12.4697 34.3053 11.375 35.1094 10.4473C35.9258 9.51953 36.9154 8.80827 38.0781 8.31348C39.2409 7.80632 40.5521 7.55273 42.0117 7.55273C43.4342 7.55273 44.696 7.78776 45.7969 8.25781C46.8978 8.72786 47.8193 9.39583 48.5615 10.2617C49.3161 11.1276 49.8851 12.1667 50.2686 13.3789C50.652 14.5788 50.8438 15.9147 50.8438 17.3867V19.6133H34.8867V16.0508H45.5928V15.6426C45.5928 14.9004 45.4567 14.2386 45.1846 13.6572C44.9248 13.0635 44.529 12.5934 43.9971 12.2471C43.4652 11.9007 42.7848 11.7275 41.9561 11.7275C41.251 11.7275 40.6449 11.8822 40.1377 12.1914C39.6305 12.5007 39.2161 12.9336 38.8945 13.4902C38.5853 14.0469 38.3503 14.7025 38.1895 15.457C38.041 16.1992 37.9668 17.0156 37.9668 17.9062V18.6484C37.9668 19.4525 38.0781 20.1947 38.3008 20.875C38.5358 21.5553 38.8636 22.1429 39.2842 22.6377C39.7171 23.1325 40.2367 23.516 40.8428 23.7881C41.4613 24.0602 42.1602 24.1963 42.9395 24.1963C43.9043 24.1963 44.8011 24.0107 45.6299 23.6396C46.471 23.2562 47.1947 22.681 47.8008 21.9141L50.3984 24.7344C49.9779 25.3405 49.4027 25.9219 48.6729 26.4785C47.9554 27.0352 47.0895 27.4928 46.0752 27.8516C45.0609 28.1979 43.9043 28.3711 42.6055 28.3711ZM58.1914 7.92383L61.5127 14.0283L64.9268 7.92383H70.623L64.9453 17.7393L70.8828 28H65.168L61.5498 21.543L57.9316 28H52.2168L58.1543 17.7393L52.4766 7.92383H58.1914ZM78.8613 7.92383V28H73.499V7.92383H78.8613ZM73.165 2.69141C73.165 1.91211 73.4372 1.26888 73.9814 0.761719C74.5257 0.254557 75.2555 0.000976562 76.1709 0.000976562C77.0739 0.000976562 77.7975 0.254557 78.3418 0.761719C78.8984 1.26888 79.1768 1.91211 79.1768 2.69141C79.1768 3.4707 78.8984 4.11393 78.3418 4.62109C77.7975 5.12826 77.0739 5.38184 76.1709 5.38184C75.2555 5.38184 74.5257 5.12826 73.9814 4.62109C73.4372 4.11393 73.165 3.4707 73.165 2.69141ZM91.5713 24.1963C92.2269 24.1963 92.8083 24.0726 93.3154 23.8252C93.8226 23.5654 94.2184 23.2067 94.5029 22.749C94.7998 22.279 94.9544 21.7285 94.9668 21.0977H99.9951C99.9827 22.5078 99.6055 23.7633 98.8633 24.8643C98.1211 25.9528 97.1253 26.8125 95.876 27.4434C94.6266 28.0618 93.2288 28.3711 91.6826 28.3711C90.124 28.3711 88.7633 28.1113 87.6006 27.5918C86.4502 27.0723 85.4915 26.3548 84.7246 25.4395C83.9577 24.5117 83.3825 23.4355 82.999 22.2109C82.6156 20.974 82.4238 19.6504 82.4238 18.2402V17.7021C82.4238 16.2796 82.6156 14.9561 82.999 13.7314C83.3825 12.4945 83.9577 11.4183 84.7246 10.5029C85.4915 9.5752 86.4502 8.85156 87.6006 8.33203C88.751 7.8125 90.0993 7.55273 91.6455 7.55273C93.2907 7.55273 94.7318 7.86816 95.9688 8.49902C97.2181 9.12988 98.1953 10.0329 98.9004 11.208C99.6178 12.3708 99.9827 13.75 99.9951 15.3457H94.9668C94.9544 14.6777 94.8122 14.0716 94.54 13.5273C94.2803 12.9831 93.8968 12.5501 93.3896 12.2285C92.8949 11.8945 92.2826 11.7275 91.5527 11.7275C90.7734 11.7275 90.1364 11.8945 89.6416 12.2285C89.1468 12.5501 88.7633 12.9954 88.4912 13.5645C88.2191 14.1211 88.0273 14.7581 87.916 15.4756C87.8171 16.1807 87.7676 16.9229 87.7676 17.7021V18.2402C87.7676 19.0195 87.8171 19.7679 87.916 20.4854C88.015 21.2028 88.2005 21.8398 88.4727 22.3965C88.7572 22.9531 89.1468 23.3923 89.6416 23.7139C90.1364 24.0355 90.7796 24.1963 91.5713 24.1963ZM102.24 18.166V17.7764C102.24 16.3044 102.451 14.9499 102.871 13.7129C103.292 12.4635 103.904 11.3812 104.708 10.4658C105.512 9.55046 106.502 8.83919 107.677 8.33203C108.852 7.8125 110.2 7.55273 111.722 7.55273C113.243 7.55273 114.598 7.8125 115.785 8.33203C116.973 8.83919 117.968 9.55046 118.772 10.4658C119.589 11.3812 120.207 12.4635 120.628 13.7129C121.049 14.9499 121.259 16.3044 121.259 17.7764V18.166C121.259 19.6257 121.049 20.9801 120.628 22.2295C120.207 23.4665 119.589 24.5488 118.772 25.4766C117.968 26.3919 116.979 27.1032 115.804 27.6104C114.629 28.1175 113.28 28.3711 111.759 28.3711C110.237 28.3711 108.883 28.1175 107.695 27.6104C106.52 27.1032 105.524 26.3919 104.708 25.4766C103.904 24.5488 103.292 23.4665 102.871 22.2295C102.451 20.9801 102.24 19.6257 102.24 18.166ZM107.584 17.7764V18.166C107.584 19.0072 107.658 19.7926 107.807 20.5225C107.955 21.2523 108.19 21.8955 108.512 22.4521C108.846 22.9964 109.279 23.4232 109.811 23.7324C110.342 24.0417 110.992 24.1963 111.759 24.1963C112.501 24.1963 113.138 24.0417 113.67 23.7324C114.202 23.4232 114.629 22.9964 114.95 22.4521C115.272 21.8955 115.507 21.2523 115.655 20.5225C115.816 19.7926 115.896 19.0072 115.896 18.166V17.7764C115.896 16.96 115.816 16.193 115.655 15.4756C115.507 14.7458 115.266 14.1025 114.932 13.5459C114.61 12.9769 114.183 12.5316 113.651 12.21C113.119 11.8883 112.476 11.7275 111.722 11.7275C110.967 11.7275 110.324 11.8883 109.792 12.21C109.272 12.5316 108.846 12.9769 108.512 13.5459C108.19 14.1025 107.955 14.7458 107.807 15.4756C107.658 16.193 107.584 16.96 107.584 17.7764ZM142.244 23.6582V28H128.644V23.6582H142.244ZM130.443 0.984375V28H124.877V0.984375H130.443ZM156.531 23.1943V7.92383H161.875V28H156.847L156.531 23.1943ZM157.125 19.0752L158.702 19.0381C158.702 20.374 158.548 21.6172 158.238 22.7676C157.929 23.9056 157.465 24.8952 156.847 25.7363C156.228 26.5651 155.449 27.2145 154.509 27.6846C153.569 28.1423 152.462 28.3711 151.188 28.3711C150.21 28.3711 149.307 28.235 148.479 27.9629C147.662 27.6784 146.957 27.2393 146.363 26.6455C145.782 26.0394 145.324 25.2663 144.99 24.3262C144.669 23.3737 144.508 22.2295 144.508 20.8936V7.92383H149.852V20.9307C149.852 21.5244 149.92 22.0254 150.056 22.4336C150.204 22.8418 150.408 23.1758 150.668 23.4355C150.928 23.6953 151.231 23.8809 151.577 23.9922C151.936 24.1035 152.332 24.1592 152.765 24.1592C153.866 24.1592 154.731 23.9365 155.362 23.4912C156.006 23.0459 156.457 22.4398 156.717 21.6729C156.989 20.8936 157.125 20.0277 157.125 19.0752ZM170.262 7.92383L173.583 14.0283L176.997 7.92383H182.693L177.016 17.7393L182.953 28H177.238L173.62 21.543L170.002 28H164.287L170.225 17.7393L164.547 7.92383H170.262ZM197.166 23.1943V7.92383H202.51V28H197.481L197.166 23.1943ZM197.76 19.0752L199.337 19.0381C199.337 20.374 199.182 21.6172 198.873 22.7676C198.564 23.9056 198.1 24.8952 197.481 25.7363C196.863 26.5651 196.084 27.2145 195.144 27.6846C194.203 28.1423 193.096 28.3711 191.822 28.3711C190.845 28.3711 189.942 28.235 189.113 27.9629C188.297 27.6784 187.592 27.2393 186.998 26.6455C186.417 26.0394 185.959 25.2663 185.625 24.3262C185.303 23.3737 185.143 22.2295 185.143 20.8936V7.92383H190.486V20.9307C190.486 21.5244 190.554 22.0254 190.69 22.4336C190.839 22.8418 191.043 23.1758 191.303 23.4355C191.562 23.6953 191.866 23.8809 192.212 23.9922C192.571 24.1035 192.966 24.1592 193.399 24.1592C194.5 24.1592 195.366 23.9365 195.997 23.4912C196.64 23.0459 197.092 22.4398 197.352 21.6729C197.624 20.8936 197.76 20.0277 197.76 19.0752ZM211.936 12.3027V28H206.592V7.92383H211.62L211.936 12.3027ZM217.984 7.79395L217.892 12.748C217.632 12.7109 217.316 12.68 216.945 12.6553C216.587 12.6182 216.259 12.5996 215.962 12.5996C215.207 12.5996 214.552 12.6986 213.995 12.8965C213.451 13.082 212.993 13.3604 212.622 13.7314C212.263 14.1025 211.991 14.554 211.806 15.0859C211.632 15.6178 211.534 16.224 211.509 16.9043L210.433 16.5703C210.433 15.2715 210.562 14.0778 210.822 12.9893C211.082 11.8883 211.459 10.9297 211.954 10.1133C212.461 9.29688 213.08 8.66602 213.81 8.2207C214.539 7.77539 215.374 7.55273 216.314 7.55273C216.611 7.55273 216.914 7.57747 217.224 7.62695C217.533 7.66406 217.786 7.71973 217.984 7.79395ZM226.798 25.7363L232.123 7.92383H237.856L229.785 31.0244C229.612 31.5316 229.377 32.0758 229.08 32.6572C228.796 33.2386 228.406 33.7891 227.911 34.3086C227.429 34.8405 226.816 35.2734 226.074 35.6074C225.344 35.9414 224.448 36.1084 223.384 36.1084C222.877 36.1084 222.462 36.0775 222.141 36.0156C221.819 35.9538 221.436 35.8672 220.99 35.7559V31.8408C221.126 31.8408 221.269 31.8408 221.417 31.8408C221.565 31.8532 221.708 31.8594 221.844 31.8594C222.549 31.8594 223.124 31.779 223.569 31.6182C224.015 31.4574 224.373 31.21 224.646 30.876C224.918 30.5544 225.134 30.1338 225.295 29.6143L226.798 25.7363ZM224.571 7.92383L228.932 22.4707L229.692 28.1299L226.056 28.5195L218.838 7.92383H224.571ZM258.081 28H252.199L252.236 23.6582H258.081C259.541 23.6582 260.771 23.3304 261.773 22.6748C262.775 22.0068 263.53 21.0358 264.037 19.7617C264.557 18.4876 264.816 16.9476 264.816 15.1416V13.8242C264.816 12.4388 264.668 11.2204 264.371 10.1689C264.087 9.11751 263.66 8.23307 263.091 7.51562C262.522 6.79818 261.823 6.26009 260.994 5.90137C260.165 5.53027 259.213 5.34473 258.137 5.34473H252.088V0.984375H258.137C259.943 0.984375 261.594 1.29362 263.091 1.91211C264.6 2.51823 265.905 3.3903 267.006 4.52832C268.107 5.66634 268.954 7.02702 269.548 8.61035C270.154 10.1813 270.457 11.9316 270.457 13.8613V15.1416C270.457 17.0589 270.154 18.8092 269.548 20.3926C268.954 21.9759 268.107 23.3366 267.006 24.4746C265.917 25.6003 264.612 26.4723 263.091 27.0908C261.582 27.6969 259.912 28 258.081 28ZM255.354 0.984375V28H249.787V0.984375H255.354ZM283.408 28.3711C281.85 28.3711 280.452 28.1237 279.215 27.6289C277.978 27.1217 276.926 26.4229 276.061 25.5322C275.207 24.6416 274.551 23.6087 274.094 22.4336C273.636 21.2461 273.407 19.9844 273.407 18.6484V17.9062C273.407 16.3848 273.624 14.9932 274.057 13.7314C274.49 12.4697 275.108 11.375 275.912 10.4473C276.729 9.51953 277.718 8.80827 278.881 8.31348C280.044 7.80632 281.355 7.55273 282.814 7.55273C284.237 7.55273 285.499 7.78776 286.6 8.25781C287.701 8.72786 288.622 9.39583 289.364 10.2617C290.119 11.1276 290.688 12.1667 291.071 13.3789C291.455 14.5788 291.646 15.9147 291.646 17.3867V19.6133H275.689V16.0508H286.396V15.6426C286.396 14.9004 286.259 14.2386 285.987 13.6572C285.728 13.0635 285.332 12.5934 284.8 12.2471C284.268 11.9007 283.588 11.7275 282.759 11.7275C282.054 11.7275 281.448 11.8822 280.94 12.1914C280.433 12.5007 280.019 12.9336 279.697 13.4902C279.388 14.0469 279.153 14.7025 278.992 15.457C278.844 16.1992 278.77 17.0156 278.77 17.9062V18.6484C278.77 19.4525 278.881 20.1947 279.104 20.875C279.339 21.5553 279.666 22.1429 280.087 22.6377C280.52 23.1325 281.039 23.516 281.646 23.7881C282.264 24.0602 282.963 24.1963 283.742 24.1963C284.707 24.1963 285.604 24.0107 286.433 23.6396C287.274 23.2562 287.997 22.681 288.604 21.9141L291.201 24.7344C290.781 25.3405 290.205 25.9219 289.476 26.4785C288.758 27.0352 287.892 27.4928 286.878 27.8516C285.864 28.1979 284.707 28.3711 283.408 28.3711ZM305.544 22.4521C305.544 22.0687 305.433 21.7223 305.21 21.4131C304.987 21.1038 304.573 20.8193 303.967 20.5596C303.373 20.2874 302.513 20.04 301.388 19.8174C300.373 19.5947 299.427 19.3164 298.549 18.9824C297.683 18.6361 296.928 18.2217 296.285 17.7393C295.654 17.2568 295.16 16.6878 294.801 16.0322C294.442 15.3643 294.263 14.6035 294.263 13.75C294.263 12.9089 294.442 12.1172 294.801 11.375C295.172 10.6328 295.698 9.97721 296.378 9.4082C297.071 8.82682 297.912 8.37533 298.901 8.05371C299.903 7.71973 301.029 7.55273 302.278 7.55273C304.022 7.55273 305.519 7.83105 306.769 8.3877C308.03 8.94434 308.995 9.71126 309.663 10.6885C310.343 11.6533 310.684 12.7542 310.684 13.9912H305.34C305.34 13.4717 305.229 13.0078 305.006 12.5996C304.796 12.179 304.462 11.8512 304.004 11.6162C303.559 11.3688 302.977 11.2451 302.26 11.2451C301.666 11.2451 301.153 11.3503 300.72 11.5605C300.287 11.7585 299.953 12.0306 299.718 12.377C299.495 12.7109 299.384 13.082 299.384 13.4902C299.384 13.7995 299.446 14.0778 299.569 14.3252C299.705 14.5602 299.922 14.7767 300.219 14.9746C300.516 15.1725 300.899 15.3581 301.369 15.5312C301.852 15.6921 302.445 15.8405 303.15 15.9766C304.598 16.2734 305.89 16.6631 307.028 17.1455C308.166 17.6156 309.069 18.2588 309.737 19.0752C310.405 19.8792 310.739 20.9368 310.739 22.248C310.739 23.1387 310.541 23.9551 310.146 24.6973C309.75 25.4395 309.181 26.0889 308.438 26.6455C307.696 27.1898 306.806 27.6165 305.767 27.9258C304.74 28.2227 303.583 28.3711 302.297 28.3711C300.429 28.3711 298.846 28.0371 297.547 27.3691C296.26 26.7012 295.283 25.8538 294.615 24.8271C293.96 23.7881 293.632 22.7243 293.632 21.6357H298.697C298.722 22.3656 298.908 22.9531 299.254 23.3984C299.613 23.8438 300.064 24.1654 300.608 24.3633C301.165 24.5612 301.765 24.6602 302.408 24.6602C303.101 24.6602 303.676 24.5674 304.134 24.3818C304.591 24.1839 304.938 23.9242 305.173 23.6025C305.42 23.2686 305.544 22.8851 305.544 22.4521ZM324.043 7.92383V11.709H312.354V7.92383H324.043ZM315.248 2.96973H320.592V21.9512C320.592 22.5326 320.666 22.9779 320.814 23.2871C320.975 23.5964 321.21 23.8128 321.52 23.9365C321.829 24.0479 322.218 24.1035 322.688 24.1035C323.022 24.1035 323.319 24.0911 323.579 24.0664C323.851 24.0293 324.08 23.9922 324.266 23.9551L324.284 27.8887C323.826 28.0371 323.332 28.1546 322.8 28.2412C322.268 28.3278 321.68 28.3711 321.037 28.3711C319.862 28.3711 318.835 28.1794 317.957 27.7959C317.091 27.4001 316.423 26.7692 315.953 25.9033C315.483 25.0374 315.248 23.8994 315.248 22.4893V2.96973ZM332.727 7.92383V28H327.364V7.92383H332.727ZM327.03 2.69141C327.03 1.91211 327.302 1.26888 327.847 0.761719C328.391 0.254557 329.121 0.000976562 330.036 0.000976562C330.939 0.000976562 331.663 0.254557 332.207 0.761719C332.764 1.26888 333.042 1.91211 333.042 2.69141C333.042 3.4707 332.764 4.11393 332.207 4.62109C331.663 5.12826 330.939 5.38184 330.036 5.38184C329.121 5.38184 328.391 5.12826 327.847 4.62109C327.302 4.11393 327.03 3.4707 327.03 2.69141ZM342.375 12.21V28H337.031V7.92383H342.041L342.375 12.21ZM341.596 17.2568H340.148C340.148 15.7725 340.34 14.4365 340.724 13.249C341.107 12.0492 341.645 11.0286 342.338 10.1875C343.031 9.33398 343.853 8.68457 344.806 8.23926C345.771 7.78158 346.847 7.55273 348.034 7.55273C348.974 7.55273 349.834 7.6888 350.613 7.96094C351.393 8.23307 352.061 8.66602 352.617 9.25977C353.186 9.85352 353.619 10.639 353.916 11.6162C354.225 12.5934 354.38 13.7871 354.38 15.1973V28H348.999V15.1787C348.999 14.2881 348.875 13.5954 348.628 13.1006C348.381 12.6058 348.016 12.2594 347.533 12.0615C347.063 11.8512 346.482 11.7461 345.789 11.7461C345.072 11.7461 344.447 11.8883 343.915 12.1729C343.396 12.4574 342.963 12.8532 342.616 13.3604C342.282 13.8551 342.029 14.4365 341.855 15.1045C341.682 15.7725 341.596 16.4899 341.596 17.2568ZM369.279 23.4727V14.5293C369.279 13.8861 369.174 13.3356 368.964 12.8779C368.754 12.4079 368.426 12.043 367.98 11.7832C367.548 11.5234 366.985 11.3936 366.292 11.3936C365.698 11.3936 365.185 11.4987 364.752 11.709C364.319 11.9069 363.985 12.1976 363.75 12.5811C363.515 12.9521 363.397 13.3913 363.397 13.8984H358.054C358.054 13.0449 358.252 12.2347 358.647 11.4678C359.043 10.7008 359.618 10.0267 360.373 9.44531C361.128 8.85156 362.024 8.3877 363.063 8.05371C364.115 7.71973 365.29 7.55273 366.589 7.55273C368.147 7.55273 369.533 7.8125 370.745 8.33203C371.957 8.85156 372.91 9.63086 373.603 10.6699C374.308 11.709 374.66 13.0078 374.66 14.5664V23.1572C374.66 24.2581 374.728 25.1611 374.864 25.8662C375 26.5589 375.198 27.165 375.458 27.6846V28H370.059C369.799 27.4557 369.601 26.7754 369.465 25.959C369.341 25.1302 369.279 24.3014 369.279 23.4727ZM369.984 15.7725L370.021 18.7969H367.034C366.329 18.7969 365.717 18.8773 365.197 19.0381C364.678 19.1989 364.251 19.4277 363.917 19.7246C363.583 20.0091 363.336 20.3431 363.175 20.7266C363.026 21.11 362.952 21.5306 362.952 21.9883C362.952 22.446 363.057 22.8604 363.268 23.2314C363.478 23.5902 363.781 23.8747 364.177 24.085C364.573 24.2829 365.036 24.3818 365.568 24.3818C366.372 24.3818 367.071 24.221 367.665 23.8994C368.259 23.5778 368.716 23.182 369.038 22.7119C369.372 22.2419 369.545 21.7965 369.558 21.376L370.968 23.6396C370.77 24.1468 370.498 24.6725 370.151 25.2168C369.817 25.7611 369.391 26.2744 368.871 26.7568C368.352 27.2269 367.727 27.6165 366.997 27.9258C366.267 28.2227 365.401 28.3711 364.399 28.3711C363.125 28.3711 361.969 28.1175 360.93 27.6104C359.903 27.0908 359.087 26.3796 358.48 25.4766C357.887 24.5612 357.59 23.5221 357.59 22.3594C357.59 21.3079 357.788 20.374 358.184 19.5576C358.579 18.7412 359.161 18.0547 359.928 17.498C360.707 16.929 361.678 16.5023 362.841 16.2178C364.004 15.9209 365.352 15.7725 366.886 15.7725H369.984ZM388.613 7.92383V11.709H376.924V7.92383H388.613ZM379.818 2.96973H385.162V21.9512C385.162 22.5326 385.236 22.9779 385.385 23.2871C385.546 23.5964 385.781 23.8128 386.09 23.9365C386.399 24.0479 386.789 24.1035 387.259 24.1035C387.593 24.1035 387.89 24.0911 388.149 24.0664C388.422 24.0293 388.65 23.9922 388.836 23.9551L388.854 27.8887C388.397 28.0371 387.902 28.1546 387.37 28.2412C386.838 28.3278 386.251 28.3711 385.607 28.3711C384.432 28.3711 383.406 28.1794 382.527 27.7959C381.661 27.4001 380.993 26.7692 380.523 25.9033C380.053 25.0374 379.818 23.8994 379.818 22.4893V2.96973ZM397.297 7.92383V28H391.935V7.92383H397.297ZM391.601 2.69141C391.601 1.91211 391.873 1.26888 392.417 0.761719C392.961 0.254557 393.691 0.000976562 394.606 0.000976562C395.509 0.000976562 396.233 0.254557 396.777 0.761719C397.334 1.26888 397.612 1.91211 397.612 2.69141C397.612 3.4707 397.334 4.11393 396.777 4.62109C396.233 5.12826 395.509 5.38184 394.606 5.38184C393.691 5.38184 392.961 5.12826 392.417 4.62109C391.873 4.11393 391.601 3.4707 391.601 2.69141ZM400.859 18.166V17.7764C400.859 16.3044 401.07 14.9499 401.49 13.7129C401.911 12.4635 402.523 11.3812 403.327 10.4658C404.131 9.55046 405.121 8.83919 406.296 8.33203C407.471 7.8125 408.819 7.55273 410.341 7.55273C411.862 7.55273 413.217 7.8125 414.404 8.33203C415.592 8.83919 416.588 9.55046 417.392 10.4658C418.208 11.3812 418.826 12.4635 419.247 13.7129C419.668 14.9499 419.878 16.3044 419.878 17.7764V18.166C419.878 19.6257 419.668 20.9801 419.247 22.2295C418.826 23.4665 418.208 24.5488 417.392 25.4766C416.588 26.3919 415.598 27.1032 414.423 27.6104C413.248 28.1175 411.899 28.3711 410.378 28.3711C408.856 28.3711 407.502 28.1175 406.314 27.6104C405.139 27.1032 404.144 26.3919 403.327 25.4766C402.523 24.5488 401.911 23.4665 401.49 22.2295C401.07 20.9801 400.859 19.6257 400.859 18.166ZM406.203 17.7764V18.166C406.203 19.0072 406.277 19.7926 406.426 20.5225C406.574 21.2523 406.809 21.8955 407.131 22.4521C407.465 22.9964 407.898 23.4232 408.43 23.7324C408.962 24.0417 409.611 24.1963 410.378 24.1963C411.12 24.1963 411.757 24.0417 412.289 23.7324C412.821 23.4232 413.248 22.9964 413.569 22.4521C413.891 21.8955 414.126 21.2523 414.274 20.5225C414.435 19.7926 414.516 19.0072 414.516 18.166V17.7764C414.516 16.96 414.435 16.193 414.274 15.4756C414.126 14.7458 413.885 14.1025 413.551 13.5459C413.229 12.9769 412.802 12.5316 412.271 12.21C411.739 11.8883 411.095 11.7275 410.341 11.7275C409.586 11.7275 408.943 11.8883 408.411 12.21C407.892 12.5316 407.465 12.9769 407.131 13.5459C406.809 14.1025 406.574 14.7458 406.426 15.4756C406.277 16.193 406.203 16.96 406.203 17.7764ZM428.395 12.21V28H423.051V7.92383H428.061L428.395 12.21ZM427.615 17.2568H426.168C426.168 15.7725 426.36 14.4365 426.743 13.249C427.127 12.0492 427.665 11.0286 428.357 10.1875C429.05 9.33398 429.873 8.68457 430.825 8.23926C431.79 7.78158 432.866 7.55273 434.054 7.55273C434.994 7.55273 435.854 7.6888 436.633 7.96094C437.412 8.23307 438.08 8.66602 438.637 9.25977C439.206 9.85352 439.639 10.639 439.936 11.6162C440.245 12.5934 440.399 13.7871 440.399 15.1973V28H435.019V15.1787C435.019 14.2881 434.895 13.5954 434.647 13.1006C434.4 12.6058 434.035 12.2594 433.553 12.0615C433.083 11.8512 432.501 11.7461 431.809 11.7461C431.091 11.7461 430.466 11.8883 429.935 12.1729C429.415 12.4574 428.982 12.8532 428.636 13.3604C428.302 13.8551 428.048 14.4365 427.875 15.1045C427.702 15.7725 427.615 16.4899 427.615 17.2568ZM455.317 22.4521C455.317 22.0687 455.206 21.7223 454.983 21.4131C454.761 21.1038 454.346 20.8193 453.74 20.5596C453.146 20.2874 452.287 20.04 451.161 19.8174C450.147 19.5947 449.201 19.3164 448.322 18.9824C447.456 18.6361 446.702 18.2217 446.059 17.7393C445.428 17.2568 444.933 16.6878 444.574 16.0322C444.215 15.3643 444.036 14.6035 444.036 13.75C444.036 12.9089 444.215 12.1172 444.574 11.375C444.945 10.6328 445.471 9.97721 446.151 9.4082C446.844 8.82682 447.685 8.37533 448.675 8.05371C449.677 7.71973 450.802 7.55273 452.052 7.55273C453.796 7.55273 455.293 7.83105 456.542 8.3877C457.804 8.94434 458.769 9.71126 459.437 10.6885C460.117 11.6533 460.457 12.7542 460.457 13.9912H455.113C455.113 13.4717 455.002 13.0078 454.779 12.5996C454.569 12.179 454.235 11.8512 453.777 11.6162C453.332 11.3688 452.751 11.2451 452.033 11.2451C451.439 11.2451 450.926 11.3503 450.493 11.5605C450.06 11.7585 449.726 12.0306 449.491 12.377C449.269 12.7109 449.157 13.082 449.157 13.4902C449.157 13.7995 449.219 14.0778 449.343 14.3252C449.479 14.5602 449.695 14.7767 449.992 14.9746C450.289 15.1725 450.673 15.3581 451.143 15.5312C451.625 15.6921 452.219 15.8405 452.924 15.9766C454.371 16.2734 455.664 16.6631 456.802 17.1455C457.94 17.6156 458.843 18.2588 459.511 19.0752C460.179 19.8792 460.513 20.9368 460.513 22.248C460.513 23.1387 460.315 23.9551 459.919 24.6973C459.523 25.4395 458.954 26.0889 458.212 26.6455C457.47 27.1898 456.579 27.6165 455.54 27.9258C454.513 28.2227 453.357 28.3711 452.07 28.3711C450.202 28.3711 448.619 28.0371 447.32 27.3691C446.034 26.7012 445.057 25.8538 444.389 24.8271C443.733 23.7881 443.405 22.7243 443.405 21.6357H448.471C448.495 22.3656 448.681 22.9531 449.027 23.3984C449.386 23.8438 449.838 24.1654 450.382 24.3633C450.938 24.5612 451.538 24.6602 452.182 24.6602C452.874 24.6602 453.45 24.5674 453.907 24.3818C454.365 24.1839 454.711 23.9242 454.946 23.6025C455.194 23.2686 455.317 22.8851 455.317 22.4521Z" fill="#E63946"/>
</svg>
